<svg xmlns="http://www.w3.org/2000/svg" width="71" height="39" viewBox="0 0 71 39" fill="none"><g clip-path="url(#clip0_668_24)"><path fill-rule="evenodd" clip-rule="evenodd" d="M39.666 34.3826C55.857 42.9306 69.6112 29.5654 70.0149 26.3654C68.0504 23.7916 49.3909 18.9867 39.666 34.3826Z" fill="url(#paint0_linear_668_24)"></path><path fill-rule="evenodd" clip-rule="evenodd" d="M38.3457 32.0755C56.7752 30.9109 61.5875 12.1732 60.2395 9.20558C57.1838 8.02392 38.5904 13.712 38.3457 32.0755Z" fill="url(#paint1_linear_668_24)"></path><path fill-rule="evenodd" clip-rule="evenodd" d="M36.1649 30.8792C51.6953 20.8877 46.7632 2.18422 44.1528 0.244141C40.9185 0.694297 27.4554 14.7103 36.1649 30.8792Z" fill="url(#paint2_linear_668_24)"></path><path fill-rule="evenodd" clip-rule="evenodd" d="M33.6977 30.8865C42.4538 14.6295 29.0861 0.647758 25.8689 0.21228C23.2512 2.17193 18.2529 20.9537 33.6977 30.8865Z" fill="url(#paint3_linear_668_24)"></path><path fill-rule="evenodd" clip-rule="evenodd" d="M31.5382 32.0951C31.2936 13.6313 12.8029 7.91386 9.76433 9.09796C8.44567 12.0851 13.209 30.9257 31.5382 32.0951Z" fill="url(#paint4_linear_668_24)"></path><path fill-rule="evenodd" clip-rule="evenodd" d="M30.2314 34.2211C20.9714 18.243 2.05751 22.3042 0 24.8217C0.298473 28.0731 13.676 42.1723 30.2314 34.2211Z" fill="url(#paint5_linear_668_24)"></path><path fill-rule="evenodd" clip-rule="evenodd" d="M35.0172 4.93408C41.1188 15.7256 41.1335 23.7159 35.0172 34.7814C28.874 23.9997 28.901 16.007 35.0172 4.93408ZM35.0343 10.6858C32.3261 17.1494 32.26 22.5905 34.9903 29.0346C37.6912 22.5709 37.7475 17.1225 35.0343 10.6858Z" fill="#FEFEFE" stroke="#EBECEC" stroke-width="0.5" stroke-miterlimit="2.61"></path><path fill-rule="evenodd" clip-rule="evenodd" d="M35.0172 4.93408C41.1188 15.7256 41.1335 23.7159 35.0172 34.7814C28.874 23.9997 28.901 16.007 35.0172 4.93408ZM35.0343 12.3299C33.1187 17.5654 33.0771 22.1697 34.9879 27.393C36.8961 22.1574 36.9353 17.5507 35.0343 12.3299Z" fill="#FEFEFE"></path><path fill-rule="evenodd" clip-rule="evenodd" d="M61.1413 20.347C54.6434 30.9062 47.6513 34.7814 35.0176 34.7814C41.4837 24.1905 48.4929 20.347 61.1413 20.347ZM54.6728 23.936C49.1657 24.7923 45.1119 26.9795 41.4617 31.1801C46.9712 30.319 51.0226 28.1318 54.6728 23.936Z" fill="#FEFEFE"></path><path fill-rule="evenodd" clip-rule="evenodd" d="M50.1443 9.04907C49.9339 21.4455 45.8874 28.3349 35.0176 34.7765C35.1864 22.3703 39.2574 15.4883 50.1443 9.04907ZM46.4207 15.4344C42.1173 18.977 39.7418 22.9232 38.746 28.4009C43.0323 24.851 45.4005 20.8999 46.4207 15.4344Z" fill="#FEFEFE"></path><path fill-rule="evenodd" clip-rule="evenodd" d="M20.2793 8.82642C30.9142 15.1873 34.8629 22.1427 35.017 34.7765C24.3527 28.4376 20.4212 21.4748 20.2793 8.82642ZM23.9491 15.2509C24.8689 20.7482 27.1026 24.7752 31.3473 28.3715C30.4176 22.8767 28.1791 18.8522 23.9466 15.2509H23.9491Z" fill="#FEFEFE"></path><path fill-rule="evenodd" clip-rule="evenodd" d="M9.02539 20.1146C21.4218 20.1146 28.3821 24.029 35.017 34.7765C22.6108 34.8304 15.6579 30.8841 9.02539 20.1146ZM15.4744 23.7355C19.0928 27.9753 23.083 30.2774 28.573 31.1753C24.9497 26.9428 20.957 24.6456 15.4744 23.7281V23.7355Z" fill="#FEFEFE"></path></g><path d="M35.1556 38.9998C38.1681 38.9998 40.6101 36.5577 40.6101 33.5453C40.6101 30.5329 38.1681 28.0908 35.1556 28.0908C32.1432 28.0908 29.7012 30.5329 29.7012 33.5453C29.7012 36.5577 32.1432 38.9998 35.1556 38.9998Z" fill="url(#paint6_radial_668_24)"></path><path d="M33.9056 30.867C33.9275 30.8834 33.9575 30.8943 33.9847 30.9106C34.0077 30.9301 34.0347 30.944 34.0638 30.9515C34.0901 30.9554 34.1167 30.9554 34.1429 30.9515C34.1674 30.9515 34.2056 30.9352 34.2192 30.9515C34.1549 30.972 34.0893 30.9885 34.0229 31.0006C34.0229 31.0006 34.0829 31.0306 34.1102 31.047C34.1375 31.0634 34.1647 31.1288 34.1729 31.1724C34.1911 31.1591 34.2076 31.1435 34.222 31.1261C34.2411 31.1043 34.2602 31.0824 34.2902 31.1015C34.3202 31.1206 34.3393 31.1724 34.3911 31.1724C34.4429 31.1724 34.4483 31.1724 34.4783 31.1724H34.582L34.6775 31.1915C34.7065 31.2048 34.7366 31.2158 34.7674 31.2242C34.785 31.2273 34.8007 31.2371 34.8111 31.2515C34.8111 31.2515 34.8111 31.2897 34.8111 31.3006C34.8076 31.3083 34.8058 31.3167 34.8058 31.3252C34.8058 31.3336 34.8076 31.342 34.8111 31.3497C34.8111 31.3797 34.8711 31.3824 34.8684 31.4179C34.8656 31.4534 34.7756 31.4725 34.732 31.4915C34.6875 31.5178 34.6508 31.5555 34.6256 31.6006C34.709 31.6088 34.7931 31.6088 34.8766 31.6006C34.9503 31.5986 35.0228 31.581 35.0893 31.5488C35.0988 31.5758 35.1147 31.6002 35.1356 31.6197C35.1438 31.6298 35.1543 31.6377 35.1661 31.6429C35.178 31.6481 35.1909 31.6505 35.2038 31.6497H35.2338C35.2638 31.6306 35.2665 31.6497 35.2747 31.6742C35.2786 31.6845 35.2852 31.6935 35.2939 31.7002C35.3025 31.7069 35.3129 31.7112 35.3238 31.7124C35.3499 31.7179 35.3768 31.7179 35.4029 31.7124H35.4492C35.4683 31.7124 35.4793 31.7288 35.4956 31.7342C35.5056 31.7351 35.5155 31.7338 35.5249 31.7305C35.5343 31.7272 35.5429 31.722 35.5502 31.7152C35.5687 31.6937 35.5843 31.6698 35.5965 31.6443C35.6101 31.6197 35.6156 31.5952 35.6265 31.5706C35.638 31.5532 35.6549 31.54 35.6746 31.5331C35.6943 31.5262 35.7157 31.526 35.7356 31.5324C35.7602 31.5324 35.7847 31.5597 35.8092 31.5706C35.8303 31.5815 35.8537 31.5871 35.8774 31.587C35.8965 31.587 35.8965 31.587 35.8993 31.6143C35.9023 31.6399 35.9097 31.6648 35.921 31.6879C35.9314 31.7047 35.9467 31.718 35.9647 31.7261L36.0683 31.7861C36.1666 31.8223 36.2668 31.8533 36.3683 31.8788C36.3683 31.8788 36.3547 31.8215 36.3247 31.8051L36.2701 31.7697C36.2496 31.756 36.232 31.7384 36.2183 31.7179C36.1774 31.6661 36.1392 31.587 36.0656 31.6143C36.0653 31.5941 36.0596 31.5743 36.0492 31.557C36.0347 31.5343 36.0138 31.5162 35.9892 31.5052C35.9619 31.4833 35.932 31.4642 35.9265 31.4288C35.921 31.3933 35.9838 31.3961 36.0056 31.3961C36.0241 31.4027 36.0444 31.4027 36.0629 31.3961C36.0629 31.3961 36.0792 31.3661 36.0629 31.3552C36.0465 31.3443 35.9811 31.3279 35.9483 31.3224C35.9165 31.3116 35.8869 31.295 35.861 31.2734C35.8338 31.2543 35.7984 31.2461 35.7711 31.2242C35.7445 31.2036 35.7237 31.1764 35.711 31.1452C35.701 31.1177 35.683 31.094 35.6592 31.077C35.6333 31.0701 35.606 31.0701 35.5801 31.077C35.5355 31.074 35.4929 31.0579 35.4574 31.0306C35.4355 31.0176 35.4115 31.0083 35.3865 31.0034C35.3483 31.0034 35.3102 31.0033 35.272 30.9897C35.2459 30.9805 35.2203 30.9695 35.1956 30.957C35.1628 30.9389 35.1266 30.9277 35.0893 30.9243C35.0102 30.9243 34.9338 30.9243 34.8547 30.9052C34.7756 30.8861 34.7565 30.8561 34.702 30.8452C34.6474 30.8342 34.6038 30.8861 34.5765 30.9243C34.5416 30.9775 34.4924 31.02 34.4347 31.047C34.4202 31.0548 34.4033 31.0566 34.3874 31.052C34.3716 31.0474 34.3582 31.0368 34.3501 31.0224C34.3464 31.0105 34.3397 30.9998 34.3306 30.9912C34.3216 30.9826 34.3104 30.9765 34.2983 30.9734C34.282 30.9734 34.2656 30.9733 34.252 30.957C34.2384 30.9406 34.252 30.9161 34.252 30.897C34.2614 30.8668 34.2614 30.8345 34.252 30.8043C34.2436 30.7851 34.2283 30.7697 34.2091 30.7611C34.19 30.7525 34.1683 30.7514 34.1483 30.7579H34.1047H34.0802C34.0685 30.75 34.0547 30.7458 34.0406 30.7458C34.0265 30.7458 34.0127 30.75 34.0011 30.7579C33.9847 30.7579 33.982 30.7852 33.9765 30.8015C33.9711 30.8179 33.9765 30.8015 33.9765 30.8179C33.9673 30.8286 33.9615 30.842 33.9602 30.8561C33.9411 30.8561 33.9111 30.8561 33.9002 30.8561C33.8893 30.8561 33.8893 30.8534 33.9056 30.867Z" fill="#868F29"></path><path d="M32.4 31.9606C32.4 31.9606 32.2991 31.9606 32.2554 31.9606C32.2118 31.9606 32.2555 31.9252 32.2146 31.9279C32.201 31.9292 32.1872 31.9292 32.1736 31.9279H32.07H32.04C32.04 31.9279 32.0646 31.8979 32.0673 31.8952C32.0958 31.8871 32.125 31.8816 32.1546 31.8788C32.1818 31.8788 32.1955 31.8515 32.2091 31.8297C32.1464 31.8297 32.0755 31.887 32.0127 31.8652H31.9609C31.9445 31.8639 31.9281 31.8639 31.9118 31.8652C31.8518 31.8652 31.8191 31.9306 31.7618 31.9497C31.7045 31.9688 31.6418 31.9879 31.6445 31.9197C31.6262 31.926 31.6095 31.9362 31.5955 31.9497C31.596 31.9414 31.5945 31.9331 31.5912 31.9255C31.5879 31.918 31.5828 31.9113 31.5764 31.906C31.5701 31.9064 31.5641 31.9087 31.5593 31.9126C31.5544 31.9165 31.5508 31.9218 31.5491 31.9279C31.5505 31.9106 31.5505 31.8933 31.5491 31.876C31.5456 31.8489 31.5503 31.8214 31.5627 31.797C31.5694 31.7849 31.5729 31.7713 31.5729 31.7574C31.5729 31.7436 31.5694 31.73 31.5627 31.7179C31.5436 31.6715 31.5846 31.666 31.5955 31.6306C31.6064 31.5951 31.5954 31.5897 31.5682 31.5761C31.5409 31.5624 31.5463 31.5597 31.5436 31.5488C31.5421 31.5416 31.5421 31.5341 31.5436 31.5269C31.5463 31.5181 31.5463 31.5086 31.5436 31.4997C31.5382 31.4921 31.5306 31.4864 31.5218 31.4834C31.5129 31.4805 31.5034 31.4805 31.4945 31.4833C31.4782 31.4833 31.4782 31.5133 31.4754 31.5243C31.4727 31.5352 31.4754 31.5406 31.4754 31.5515C31.4754 31.5624 31.4755 31.6006 31.4482 31.587C31.4209 31.5733 31.3991 31.5324 31.3882 31.5024C31.3779 31.4438 31.3596 31.3869 31.3337 31.3333C31.32 31.3142 31.2982 31.2952 31.2818 31.2761C31.2654 31.257 31.2682 31.2761 31.2682 31.2761C31.2516 31.2593 31.2377 31.24 31.2273 31.2188C31.2273 31.2024 31.2 31.1997 31.1864 31.1833C31.1781 31.1722 31.1708 31.1603 31.1645 31.1479L31.1509 31.1288L31.11 31.0797C31.0937 31.0606 31.0636 31.0279 31.0309 31.0388C31.0218 31.0444 31.0149 31.0531 31.0118 31.0633C31.0118 31.0633 31.0119 31.0797 30.9928 31.0633C30.9844 31.057 30.9778 31.0485 30.9737 31.0388V31.0224C30.9688 31.014 30.9623 31.0065 30.9545 31.0006C30.9545 31.0006 30.9354 31.0006 30.9409 31.0006C30.9436 31.0076 30.9436 31.0154 30.9409 31.0224C30.9321 31.0505 30.9212 31.0779 30.9082 31.1042C30.9082 31.1261 30.9082 31.1751 30.9273 31.186H30.9436C30.96 31.186 30.9627 31.2052 30.9655 31.2161C30.9739 31.2316 30.984 31.2463 30.9955 31.2597C31.0143 31.2894 31.0394 31.3145 31.0691 31.3333C31.0931 31.4279 31.1279 31.5194 31.1727 31.606C31.2102 31.7192 31.2737 31.8219 31.3582 31.906C31.3582 31.906 31.3855 31.8788 31.3991 31.8897C31.4068 31.895 31.4124 31.9027 31.4154 31.9115C31.425 31.9274 31.4393 31.9398 31.4564 31.947C31.4685 31.9495 31.4811 31.9485 31.4927 31.9442C31.5043 31.9398 31.5144 31.9323 31.5218 31.9224C31.5206 31.9278 31.5206 31.9334 31.5218 31.9388V31.9606C31.5218 31.9606 31.4673 32.0015 31.4537 32.0342C31.4809 32.0342 31.5 32.0342 31.5246 32.0124C31.5491 31.9906 31.5245 32.0424 31.5627 32.0424C31.6009 32.0424 31.5818 32.0424 31.5927 32.0615C31.6063 32.0642 31.6201 32.0642 31.6336 32.0615C31.6708 32.0541 31.7067 32.0413 31.74 32.0233C31.7751 32.0039 31.8145 31.9936 31.8545 31.9933C31.9098 32.0001 31.9656 32.0001 32.0209 31.9933C32.0544 31.9892 32.0883 31.9892 32.1218 31.9933C32.1464 31.9933 32.1736 31.9933 32.2009 31.9933C32.2214 31.9989 32.2431 31.9989 32.2636 31.9933C32.2727 31.9893 32.2824 31.9873 32.2923 31.9873C32.3021 31.9873 32.3119 31.9893 32.3209 31.9933C32.3209 32.0042 32.3645 31.9742 32.4 31.9606Z" fill="#D8E87D"></path><path d="M33.0843 32.0263C33.1049 32.0155 33.1249 32.0037 33.1443 31.9908C33.1898 31.9536 33.2301 31.9105 33.2643 31.8627C33.287 31.8273 33.3191 31.799 33.357 31.7808C33.4 31.7668 33.4398 31.7445 33.4743 31.7154C33.4279 31.6908 33.3897 31.7645 33.3379 31.7481C33.2861 31.7317 33.2125 31.8136 33.1771 31.8545C33.1527 31.8743 33.1346 31.9009 33.1252 31.9308C33.1252 31.9308 33.1252 31.9499 33.1252 31.9636C33.0983 31.9904 33.0728 32.0186 33.0488 32.0481H33.0652C33.0652 32.0481 33.0816 32.0236 33.0843 32.0263Z" fill="url(#paint7_radial_668_24)"></path><path d="M31.1489 29.9207C31.1715 29.892 31.189 29.8597 31.2008 29.8252C31.2071 29.8148 31.2158 29.8062 31.2263 29.8C31.2368 29.7938 31.2487 29.7903 31.2608 29.7898C31.2662 29.8177 31.2662 29.8464 31.2608 29.8743C31.2608 29.8743 31.2608 29.9289 31.239 29.9343C31.2216 29.944 31.2066 29.9573 31.1948 29.9733C31.1831 29.9893 31.1749 30.0076 31.1708 30.027C31.1619 30.0481 31.1555 30.0701 31.1517 30.0925C31.177 30.0468 31.2082 30.0046 31.2444 29.9671C31.2444 29.9671 31.2717 29.9507 31.2798 29.9671C31.288 29.9834 31.2799 30.0462 31.2526 30.0789C31.2415 30.1078 31.2341 30.1381 31.2308 30.1689C31.2308 30.1934 31.2144 30.218 31.2062 30.2425C31.198 30.2671 31.1844 30.2971 31.1762 30.3271C31.1657 30.3543 31.1657 30.3844 31.1762 30.4116C31.1817 30.4312 31.1817 30.452 31.1762 30.4716C31.1762 30.5043 31.1762 30.5371 31.1599 30.5671C31.1563 30.5903 31.1479 30.6126 31.1353 30.6325C31.1193 30.6508 31.1073 30.6721 31.0999 30.6952C31.1599 30.6952 31.1708 30.7471 31.1708 30.8016C31.1681 30.8443 31.1681 30.8871 31.1708 30.9298C31.1748 30.9788 31.1748 31.0281 31.1708 31.0771C31.2117 31.0771 31.2389 31.1152 31.2717 31.1343L31.3372 31.1725L31.3999 31.2216C31.3935 31.1646 31.3728 31.1103 31.3398 31.0634C31.3254 31.0399 31.3153 31.0141 31.3099 30.987C31.3099 30.9516 31.3099 30.9162 31.3099 30.878C31.2987 30.792 31.2605 30.7117 31.2008 30.6489C31.1545 30.5889 31.2008 30.5207 31.2008 30.4552C31.1938 30.4201 31.1938 30.384 31.2008 30.3489C31.2128 30.3173 31.2264 30.2863 31.2417 30.2562C31.252 30.2031 31.2694 30.1517 31.2935 30.1034C31.3039 30.0894 31.3191 30.0797 31.3362 30.0761C31.3534 30.0726 31.3712 30.0755 31.3862 30.0843C31.4199 30.1098 31.4431 30.1467 31.4517 30.188C31.4606 30.209 31.467 30.2309 31.4708 30.2534C31.4718 30.2625 31.4718 30.2716 31.4708 30.2807C31.4708 30.2971 31.4708 30.2971 31.498 30.2807C31.4999 30.3225 31.4934 30.3642 31.4789 30.4034C31.5253 30.4034 31.5362 30.3489 31.5553 30.308C31.5744 30.2671 31.629 30.2425 31.659 30.2043C31.6835 30.1574 31.7054 30.1092 31.7244 30.0598C31.7571 30.0107 31.8144 29.9943 31.8499 29.9507C31.8698 29.9281 31.8838 29.9009 31.8907 29.8716C31.8881 29.849 31.8881 29.8261 31.8907 29.8034C31.8992 29.782 31.9065 29.7602 31.9126 29.738C31.9126 29.7107 31.9344 29.6807 31.9126 29.6643C31.8908 29.648 31.888 29.6643 31.8853 29.6398C31.8812 29.6182 31.8812 29.596 31.8853 29.5743C31.8853 29.5225 31.8363 29.4898 31.8144 29.4462C31.8826 29.3834 31.929 29.3016 31.9944 29.2389C32.0167 29.2157 32.0404 29.1939 32.0653 29.1735C32.0953 29.1544 32.1335 29.1735 32.1662 29.1735C32.1989 29.1735 32.1826 29.1734 32.1662 29.1871C32.1498 29.2007 32.1362 29.2825 32.1035 29.318C32.0708 29.3534 32.0108 29.378 31.9999 29.4189C32.0735 29.4189 32.1035 29.3534 32.128 29.2962C32.1526 29.2389 32.1717 29.2034 32.2208 29.2034C32.2126 29.1824 32.2126 29.159 32.2208 29.138C32.2332 29.1233 32.2491 29.112 32.2671 29.1053L32.3762 29.0452C32.4498 28.9989 32.518 28.9471 32.5944 28.9034C32.6721 28.8631 32.7523 28.8276 32.8344 28.7971C32.9095 28.7588 32.9763 28.706 33.0308 28.6416C33.129 28.5489 33.2489 28.4834 33.3389 28.3689L33.3608 28.3444C32.4047 28.6616 31.5551 29.2374 30.9062 30.008C30.9913 29.9919 31.0732 29.9625 31.1489 29.9207Z" fill="url(#paint8_radial_668_24)"></path><path d="M36.6455 33.9303V33.8431C36.6344 33.8141 36.6271 33.7839 36.6237 33.7531C36.6237 33.7312 36.6374 33.7094 36.6401 33.6849C36.6384 33.6652 36.6338 33.6459 36.6264 33.6276C36.6204 33.6358 36.6121 33.642 36.6026 33.6455C36.5931 33.649 36.5828 33.6496 36.5729 33.6473C36.563 33.645 36.554 33.6398 36.5471 33.6324C36.5401 33.625 36.5354 33.6158 36.5337 33.6058C36.5226 33.5819 36.5045 33.562 36.4819 33.5485C36.4676 33.5324 36.4549 33.5151 36.4437 33.4967L36.411 33.4476C36.3892 33.4122 36.3619 33.3794 36.3373 33.344C36.3128 33.3085 36.3183 33.2976 36.2992 33.2922H36.2692C36.2364 33.2922 36.2337 33.2703 36.2283 33.2431C36.2256 33.2092 36.2173 33.176 36.2037 33.1449C36.2037 33.1122 36.1846 33.0822 36.1546 33.0631C36.1382 33.0526 36.1235 33.0398 36.111 33.0249C36.1032 33.0153 36.094 33.007 36.0837 33.0003C36.0693 32.9975 36.0544 32.9975 36.04 33.0003C36.0128 33.0003 36.0155 32.9785 35.9992 32.9649C35.9828 32.9512 35.9501 32.9649 35.9228 32.9649C35.8955 32.9649 35.8846 32.9322 35.8737 32.9158C35.8598 32.9019 35.851 32.8836 35.8491 32.864C35.8519 32.834 35.8519 32.8039 35.8491 32.774C35.839 32.7465 35.8232 32.7214 35.8028 32.7004C35.7847 32.6677 35.771 32.6329 35.7619 32.5967C35.7579 32.5797 35.7579 32.5619 35.7619 32.5449C35.7608 32.5286 35.754 32.5132 35.7428 32.5013C35.7428 32.4876 35.721 32.4849 35.7182 32.4631C35.7155 32.4413 35.7182 32.4358 35.7182 32.4194C35.7095 32.3935 35.6922 32.3714 35.6692 32.3567C35.6228 32.3158 35.5383 32.3131 35.5164 32.2476C35.507 32.2175 35.5015 32.1864 35.5001 32.1549C35.5001 32.114 35.5001 32.0758 35.5001 32.0349C35.4949 32.0044 35.4796 31.9765 35.4564 31.9558C35.4342 31.9249 35.4096 31.8957 35.3828 31.8685C35.3679 31.8979 35.3569 31.9291 35.3501 31.9613C35.3501 31.9886 35.3173 31.9995 35.301 32.0213C35.3062 32.0419 35.3062 32.0634 35.301 32.084C35.2981 32.1039 35.2885 32.1222 35.2737 32.1358C35.2566 32.1596 35.248 32.1884 35.2492 32.2176C35.2492 32.2804 35.3119 32.3349 35.3037 32.4004C35.2955 32.4658 35.2765 32.4385 35.2683 32.4631C35.2669 32.4767 35.2669 32.4904 35.2683 32.504C35.2751 32.529 35.2751 32.5554 35.2683 32.5804C35.258 32.601 35.2452 32.6202 35.2301 32.6376C35.2195 32.6521 35.2104 32.6677 35.2028 32.684C35.19 32.7196 35.1673 32.7508 35.1374 32.774C35.1326 32.7651 35.126 32.7574 35.118 32.7513C35.11 32.7452 35.1008 32.7408 35.091 32.7385C35.0742 32.7337 35.0597 32.7231 35.0501 32.7085C35.0501 32.7085 35.0501 32.6867 35.0255 32.684C35.0122 32.68 34.998 32.68 34.9846 32.684C34.9546 32.684 34.9573 32.6649 34.9546 32.6458C34.9542 32.636 34.9505 32.6266 34.944 32.6192C34.9376 32.6118 34.9288 32.6067 34.9192 32.6049C34.8865 32.6049 34.8646 32.5694 34.8346 32.5558C34.8208 32.5473 34.808 32.5373 34.7965 32.5258C34.7837 32.5164 34.7686 32.5107 34.7528 32.5095C34.7228 32.5095 34.7119 32.4631 34.6819 32.4522C34.6666 32.4487 34.6508 32.4487 34.6355 32.4522C34.6083 32.4489 34.5826 32.4375 34.5619 32.4194L34.5401 32.3976L34.5646 32.384C34.5646 32.3485 34.6055 32.3376 34.6164 32.3049C34.6178 32.2831 34.6178 32.2613 34.6164 32.2395C34.6186 32.2278 34.6234 32.2168 34.6305 32.2074C34.6376 32.1979 34.6468 32.1902 34.6574 32.1849C34.671 32.1791 34.6831 32.1702 34.6926 32.1588C34.7021 32.1474 34.7087 32.1339 34.7119 32.1194C34.7119 32.0867 34.6737 32.0622 34.6547 32.0458C34.6481 32.0561 34.6426 32.0671 34.6383 32.0785C34.6219 32.1222 34.581 32.0785 34.5756 32.0595L34.4528 32.0813C34.4302 32.0841 34.4073 32.0841 34.3847 32.0813L34.3329 32.0622C34.2962 32.0558 34.2604 32.0448 34.2265 32.0295C34.2171 32.0234 34.2062 32.0201 34.1951 32.0201C34.184 32.0201 34.1731 32.0234 34.1637 32.0295C34.1637 32.0295 34.1637 32.0567 34.1637 32.0622C34.1637 32.0676 34.0983 32.0922 34.0819 32.0895C34.0499 32.0945 34.0208 32.111 34.0001 32.1358C33.971 32.1604 33.9446 32.1877 33.921 32.2176C33.921 32.2176 33.8746 32.3185 33.861 32.3349C33.8473 32.3513 33.831 32.4058 33.861 32.4194C33.8565 32.4349 33.8478 32.4488 33.8357 32.4594C33.8236 32.47 33.8087 32.477 33.7928 32.4795C33.76 32.48 33.7275 32.4735 33.6974 32.4604C33.6565 32.4604 33.6401 32.4194 33.621 32.3867C33.6019 32.354 33.5938 32.3485 33.5719 32.3458C33.5512 32.3503 33.5322 32.3607 33.5173 32.3758C33.4921 32.396 33.47 32.4199 33.4519 32.4467C33.4328 32.4686 33.4001 32.4467 33.3783 32.4467C33.3565 32.4467 33.3783 32.4876 33.3783 32.5067C33.3723 32.504 33.3658 32.5026 33.3592 32.5026C33.3526 32.5026 33.3461 32.504 33.3401 32.5067C33.3316 32.5119 33.3243 32.5191 33.3191 32.5276C33.3139 32.5362 33.3109 32.5458 33.3101 32.5558C33.3085 32.5889 33.3039 32.6217 33.2965 32.654C33.2856 32.6528 33.2746 32.6528 33.2637 32.654C33.231 32.654 33.2337 32.7113 33.2501 32.7249C33.2664 32.7385 33.2719 32.744 33.2719 32.7603C33.2698 32.767 33.2662 32.7731 33.2615 32.7783C33.2568 32.7835 33.251 32.7876 33.2446 32.7903C33.2265 32.8011 33.2057 32.8068 33.1846 32.8067C33.1812 32.7786 33.1739 32.751 33.1629 32.7249C33.1362 32.7563 33.1124 32.79 33.092 32.8258C33.0859 32.8381 33.0828 32.8516 33.0828 32.8653C33.0828 32.8791 33.0859 32.8926 33.092 32.9049C33.0824 32.9086 33.0744 32.9155 33.0694 32.9245C33.0644 32.9334 33.0627 32.9439 33.0647 32.954C33.0647 32.9585 33.066 32.963 33.0684 32.9668C33.0708 32.9707 33.0742 32.9738 33.0783 32.9758C33.0783 32.9758 33.0783 32.9758 33.0783 33.0003C33.073 33.0118 33.0666 33.0228 33.0592 33.0331C33.0487 33.07 33.0341 33.1057 33.0156 33.1394C32.9992 33.1585 32.9583 33.1394 32.9365 33.1558C32.9193 33.1616 32.9035 33.1709 32.8901 33.1831C32.8901 33.1831 32.8737 33.1831 32.8628 33.1831H32.8301C32.8257 33.1827 32.8213 33.1832 32.8171 33.1847C32.8129 33.1862 32.8092 33.1886 32.806 33.1917C32.8029 33.1949 32.8005 33.1986 32.7991 33.2028C32.7976 33.2069 32.797 33.2114 32.7974 33.2158C32.7974 33.2158 32.7837 33.2376 32.7755 33.2458C32.7653 33.261 32.7512 33.2733 32.7347 33.2813H32.6992C32.6828 33.2813 32.6774 33.2622 32.661 33.2594C32.6539 33.2623 32.6475 33.2668 32.6423 33.2724C32.6371 33.2781 32.6333 33.2848 32.631 33.2922V33.3194H32.6065C32.6065 33.3194 32.6065 33.3521 32.6065 33.3685C32.6065 33.3849 32.5792 33.4094 32.5655 33.4285C32.5519 33.4476 32.5192 33.4885 32.5083 33.4776C32.4974 33.4667 32.5083 33.4776 32.4865 33.4776C32.4647 33.4776 32.4346 33.5349 32.4401 33.5649C32.4892 33.5649 32.4838 33.6222 32.4783 33.6576C32.4688 33.6951 32.4633 33.7335 32.4619 33.7722C32.4619 33.7967 32.4619 33.824 32.4619 33.8512C32.4578 33.8774 32.4578 33.9041 32.4619 33.9303C32.4619 33.9467 32.4783 33.9631 32.492 33.9658C32.4967 33.9678 32.5018 33.9689 32.507 33.9689C32.5121 33.9689 32.5172 33.9678 32.5219 33.9658H32.541C32.5574 33.9658 32.571 33.9658 32.5765 33.9931C32.5819 34.0203 32.5438 34.0203 32.5329 34.0258C32.5273 34.0322 32.5242 34.0405 32.5242 34.049C32.5242 34.0575 32.5273 34.0657 32.5329 34.0722C32.5329 34.094 32.5683 34.1049 32.5847 34.1212C32.601 34.1376 32.5847 34.1567 32.6065 34.1703C32.6283 34.184 32.6365 34.1976 32.6474 34.2167C32.6588 34.2333 32.6671 34.2517 32.6719 34.2712C32.6768 34.2858 32.6853 34.2989 32.6965 34.3094L32.7319 34.3367C32.746 34.3561 32.7554 34.3785 32.7592 34.4021C32.7678 34.4334 32.7848 34.4617 32.8083 34.484C32.8247 34.484 32.841 34.5031 32.8519 34.5249C32.8571 34.5399 32.8635 34.5545 32.871 34.5685C32.8821 34.5819 32.8939 34.5947 32.9065 34.6067C32.9189 34.6204 32.9291 34.6361 32.9365 34.6531C32.9545 34.6893 32.9673 34.7278 32.9746 34.7676C32.9746 34.7894 32.9964 34.8276 32.9746 34.8358C32.9678 34.8366 32.9614 34.839 32.9557 34.8428C32.95 34.8466 32.9453 34.8517 32.9419 34.8576C32.9283 34.8876 32.9828 34.9285 33.0019 34.9449C33.0406 34.969 33.0846 34.9831 33.1301 34.9858C33.1874 34.9858 33.2201 34.9612 33.2528 34.9176C33.2774 34.9367 33.2992 34.9176 33.3237 34.9176C33.3377 34.8991 33.3533 34.8818 33.3701 34.8658C33.4013 34.8499 33.4362 34.8433 33.471 34.8467C33.5267 34.8336 33.5832 34.8245 33.6401 34.8194H33.6646C33.6646 34.8194 33.6919 34.8194 33.6892 34.7976C33.6865 34.7758 33.6892 34.7976 33.6755 34.7976C33.6619 34.7976 33.7192 34.7567 33.7274 34.7376C33.7339 34.7105 33.7481 34.6859 33.7683 34.6667C33.7892 34.655 33.8126 34.6484 33.8365 34.6476C33.8869 34.6372 33.9355 34.6198 33.981 34.5958L34.0547 34.563C34.0745 34.5564 34.093 34.5462 34.1092 34.533L34.1555 34.5167C34.1951 34.4996 34.238 34.4921 34.281 34.4949C34.3206 34.5016 34.3591 34.5136 34.3956 34.5303C34.4273 34.5454 34.4601 34.5582 34.4937 34.5685C34.5346 34.5685 34.5782 34.5685 34.6137 34.5685C34.6492 34.5685 34.6465 34.6203 34.6574 34.6449C34.6683 34.6694 34.761 34.683 34.7828 34.7403C34.8046 34.7976 34.7829 34.8331 34.8101 34.8631C34.8374 34.8931 34.8837 34.7949 34.8919 34.7758C34.9001 34.7567 34.941 34.7158 34.9628 34.6831C34.9846 34.6503 35.0119 34.5958 35.031 34.5522C35.0501 34.5085 35.0665 34.4812 35.0828 34.4458C35.1039 34.4059 35.1315 34.37 35.1646 34.3394L35.181 34.323C35.1619 34.364 35.1401 34.4022 35.1183 34.4431C35.1007 34.4648 35.0878 34.4898 35.0801 34.5167C35.0736 34.5462 35.0653 34.5753 35.0555 34.604C35.0505 34.6256 35.0412 34.6459 35.0282 34.664C35.0282 34.664 35.0037 34.6885 34.9956 34.7049C34.9874 34.7212 34.9819 34.7594 34.9737 34.7867C34.9628 34.8259 34.9628 34.8674 34.9737 34.9067C34.994 34.9042 35.013 34.8956 35.0282 34.8821C35.0521 34.8641 35.0777 34.8486 35.1046 34.8358L35.1428 34.8958C35.1655 34.928 35.192 34.9573 35.2219 34.983C35.2504 35.014 35.2743 35.0489 35.2928 35.0867C35.3078 35.1173 35.3281 35.145 35.3528 35.1685C35.3748 35.1879 35.4009 35.2019 35.4291 35.2094L35.5437 35.2503C35.5786 35.2598 35.6153 35.2598 35.6501 35.2503C35.6907 35.2434 35.7322 35.2434 35.7728 35.2503C35.8273 35.2503 35.8819 35.2994 35.9392 35.2858C35.9964 35.2721 36.0701 35.1985 36.1383 35.1576C36.1739 35.1391 36.2113 35.1244 36.25 35.114C36.2785 35.1055 36.3046 35.0905 36.3264 35.0703C36.3433 35.0494 36.3529 35.0236 36.3537 34.9967C36.3511 34.975 36.3511 34.953 36.3537 34.9312C36.3642 34.9117 36.3781 34.8942 36.3946 34.8794C36.4198 34.8575 36.4403 34.8305 36.4546 34.8003C36.4682 34.7621 36.4546 34.7185 36.4764 34.6776C36.5141 34.6118 36.558 34.5497 36.6073 34.4922C36.6451 34.4326 36.6728 34.3671 36.6892 34.2985C36.6997 34.227 36.717 34.1567 36.741 34.0885C36.7524 34.0587 36.7597 34.0275 36.7628 33.9958C36.7668 33.9659 36.7668 33.9357 36.7628 33.9058L36.6455 33.9303Z" fill="url(#paint9_radial_668_24)"></path><path d="M35.7531 35.7024C35.765 35.7295 35.7838 35.7531 35.8077 35.7706C35.8895 35.8088 35.9576 35.697 35.9767 35.637C36.0079 35.5488 36.0079 35.4525 35.9767 35.3643C35.9767 35.4024 35.9768 35.4543 35.9468 35.4788C35.9104 35.4966 35.8693 35.5023 35.8295 35.4952C35.8022 35.4952 35.7777 35.4952 35.7504 35.4952C35.7267 35.493 35.7036 35.4865 35.6822 35.4761L35.6468 35.4542H35.6331L35.6113 35.4734C35.6631 35.4734 35.6904 35.5361 35.7095 35.577C35.7286 35.6179 35.7368 35.6806 35.7531 35.7024Z" fill="url(#paint10_radial_668_24)"></path><path d="M38.186 35.5661C38.1839 35.5538 38.1781 35.5425 38.1693 35.5337C38.1605 35.5249 38.1492 35.5191 38.1369 35.517C38.1236 35.5131 38.1094 35.5134 38.0962 35.5178C38.0831 35.5222 38.0716 35.5305 38.0633 35.5416C38.0619 35.5344 38.0619 35.5269 38.0633 35.5197C38.0633 35.5197 37.9896 35.5497 37.9651 35.5716C37.9405 35.5934 37.886 35.6616 37.8478 35.7052L37.796 35.7516C37.7585 35.7785 37.7183 35.8014 37.676 35.8197C37.6653 35.8235 37.6559 35.8301 37.6487 35.8388C37.6351 35.8634 37.6242 35.8388 37.6051 35.8388H37.5833V35.8197C37.5769 35.8304 37.5696 35.8404 37.5614 35.8497L37.5287 35.8797C37.5035 35.9017 37.4831 35.9286 37.4688 35.9588C37.4832 35.9562 37.4979 35.9562 37.5124 35.9588C37.5124 35.997 37.4742 36.0625 37.5124 36.0897C37.5505 36.117 37.5669 36.0897 37.5887 36.0897C37.6053 36.0844 37.6203 36.075 37.6323 36.0624C37.6517 36.0445 37.6738 36.0298 37.6978 36.0188C37.733 36.0022 37.7618 35.9744 37.7796 35.9397C37.7912 35.909 37.8078 35.8805 37.8287 35.8552C37.849 35.8408 37.871 35.8289 37.8941 35.8197L37.9541 35.7897L38.0142 35.7516L38.0442 35.727C38.0633 35.7106 38.0632 35.7106 38.085 35.727C38.085 35.6915 38.0851 35.6043 38.1342 35.5988C38.1452 35.6001 38.1564 35.5975 38.1658 35.5915C38.1752 35.5856 38.1823 35.5766 38.186 35.5661Z" fill="url(#paint11_radial_668_24)"></path><path d="M38.5428 35.2251C38.5428 35.2415 38.5182 35.2715 38.4936 35.2633C38.4803 35.2563 38.4691 35.2459 38.461 35.2333C38.4379 35.2008 38.4272 35.1611 38.4309 35.1215C38.4312 35.0957 38.4225 35.0707 38.4064 35.0506C38.3819 35.026 38.3573 35.0096 38.3546 34.9715C38.3519 34.9333 38.3546 34.876 38.3055 34.8815C38.2564 34.8869 38.2673 34.9142 38.2673 34.9415C38.2731 34.9855 38.2869 35.028 38.3082 35.0669C38.3251 35.0963 38.3389 35.1274 38.3492 35.1596C38.3506 35.1896 38.345 35.2195 38.3328 35.2469C38.3257 35.2781 38.3096 35.3066 38.2864 35.3287C38.2674 35.3451 38.2427 35.3478 38.2237 35.3615C38.2034 35.3748 38.1889 35.3952 38.1828 35.4187H38.2373C38.2345 35.4295 38.2345 35.4407 38.2373 35.4514C38.2373 35.4951 38.2373 35.5115 38.2073 35.5415C38.1773 35.5715 38.1746 35.5796 38.1773 35.6015L38.1582 35.626C38.1917 35.6061 38.222 35.5812 38.2482 35.5524C38.2741 35.5363 38.2972 35.516 38.3164 35.4924C38.3328 35.4705 38.3437 35.4433 38.3627 35.4187C38.3813 35.4003 38.4024 35.3847 38.4255 35.3724C38.4643 35.3519 38.5001 35.3262 38.5319 35.296C38.5418 35.2806 38.5472 35.2626 38.5472 35.2442C38.5472 35.2258 38.5418 35.2078 38.5319 35.1924C38.5319 35.1924 38.5455 35.2169 38.5428 35.2251Z" fill="url(#paint12_radial_668_24)"></path><path d="M33.9759 32.0399C33.9656 32.0263 33.959 32.0104 33.9568 31.9935C33.9272 32.0024 33.8971 32.0097 33.8668 32.0153C33.8449 32.0153 33.804 32.0372 33.8068 32.0672C33.8068 32.149 33.9323 32.089 33.9813 32.0672C33.9813 32.0672 33.9813 32.0371 33.9759 32.0399Z" fill="url(#paint13_radial_668_24)"></path><path d="M33.2821 28.5877C33.222 28.6017 33.1695 28.6377 33.1348 28.6886C33.1307 28.7084 33.1307 28.7288 33.1348 28.7486C33.1317 28.7725 33.1243 28.7956 33.1129 28.8168C33.1043 28.8299 33.0984 28.8447 33.0956 28.8601C33.0928 28.8756 33.0932 28.8915 33.0966 28.9068C33.1182 28.8976 33.1378 28.8842 33.1542 28.8673C33.1706 28.8504 33.1834 28.8305 33.192 28.8086C33.2111 28.765 33.222 28.6995 33.2657 28.6777C33.3093 28.6559 33.3393 28.6504 33.3229 28.6204C33.319 28.6136 33.3135 28.6078 33.3069 28.6035C33.3002 28.5992 33.2927 28.5966 33.2848 28.5959C33.2848 28.5959 33.2957 28.585 33.2821 28.5877Z" fill="url(#paint14_radial_668_24)"></path><path d="M32.9004 29.3344H32.9249C32.9249 29.3698 32.9003 29.3998 32.9249 29.4353C32.9249 29.4353 32.9577 29.4353 32.9713 29.4189C32.9923 29.4457 33.0207 29.4656 33.0531 29.4762C33.0661 29.4791 33.0798 29.4778 33.0921 29.4724C33.1044 29.467 33.1146 29.4578 33.1212 29.4462C33.1224 29.452 33.1255 29.4573 33.1299 29.4612C33.1343 29.4652 33.1399 29.4675 33.1458 29.468C33.1649 29.468 33.1785 29.4517 33.1922 29.4353H33.2958C33.2877 29.4226 33.2764 29.4123 33.2631 29.4053C33.2822 29.4053 33.2958 29.3889 33.3013 29.3698C33.3013 29.3698 33.1976 29.4135 33.1894 29.3698C33.1894 29.3698 33.0885 29.3889 33.0613 29.3535C33.0535 29.3438 33.0493 29.3318 33.0493 29.3194C33.0493 29.307 33.0535 29.295 33.0613 29.2853L33.1022 29.2526C33.1322 29.228 33.2249 29.1517 33.1485 29.1298C33.1485 29.1107 33.1758 29.0944 33.1922 29.0807C33.1632 29.0764 33.1339 29.0764 33.1049 29.0807C33.0651 29.0829 33.0273 29.0994 32.9985 29.1271C32.9985 29.1271 32.9631 29.168 32.9985 29.1762C33.0776 29.2035 32.9276 29.3235 32.9085 29.3562L32.9004 29.3344Z" fill="url(#paint15_radial_668_24)"></path><path d="M33.272 29.5393C33.2591 29.5307 33.244 29.526 33.2284 29.5257C33.2186 29.523 33.2082 29.523 33.1984 29.5257C33.1984 29.5257 33.1738 29.5257 33.1738 29.5448C33.1738 29.5639 33.1738 29.5639 33.1929 29.5721C33.212 29.5802 33.2175 29.5884 33.2175 29.5993C33.2286 29.593 33.2383 29.5844 33.2458 29.574C33.2533 29.5637 33.2585 29.5519 33.2611 29.5393H33.272Z" fill="url(#paint16_radial_668_24)"></path><path d="M33.3753 29.4823C33.3508 29.4523 33.3045 29.4823 33.2799 29.4823C33.2953 29.5114 33.3191 29.5351 33.3481 29.5505C33.3405 29.5626 33.3313 29.5736 33.3208 29.5833L33.299 29.5996V29.5778C33.299 29.5778 33.299 29.5778 33.2827 29.5778C33.2663 29.5778 33.2827 29.6051 33.2827 29.6133C33.2827 29.6214 33.3154 29.7223 33.3563 29.7032C33.3637 29.6993 33.3699 29.6934 33.3742 29.6862C33.3785 29.679 33.3808 29.6707 33.3808 29.6623C33.3808 29.6539 33.3785 29.6457 33.3742 29.6385C33.3699 29.6313 33.3637 29.6254 33.3563 29.6214C33.39 29.6014 33.4181 29.5733 33.4381 29.5396H33.4136C33.4132 29.5275 33.4093 29.5157 33.4026 29.5056C33.3958 29.4954 33.3864 29.4874 33.3753 29.4823Z" fill="url(#paint17_radial_668_24)"></path><path d="M33.1695 29.8196C33.1882 29.8146 33.2056 29.8053 33.2202 29.7925C33.2349 29.7798 33.2464 29.7639 33.254 29.746C33.2676 29.716 33.254 29.6914 33.2322 29.686C33.2104 29.6805 33.2322 29.686 33.2322 29.6696C33.2322 29.6696 33.2022 29.6696 33.194 29.6942C33.1995 29.7162 33.1982 29.7394 33.1905 29.7608C33.1827 29.7822 33.1688 29.8008 33.1504 29.8142C33.1504 29.8142 33.1613 29.8196 33.1695 29.8196Z" fill="url(#paint18_radial_668_24)"></path><path d="M33.1157 29.8034C33.1255 29.7948 33.1335 29.7844 33.1391 29.7727C33.1448 29.761 33.1479 29.7482 33.1485 29.7352C33.1446 29.709 33.1446 29.6823 33.1485 29.6561C33.15 29.6489 33.15 29.6415 33.1485 29.6343C33.1239 29.6561 33.0884 29.667 33.0666 29.6343C33.0448 29.6016 33.0666 29.6343 33.053 29.6343C33.0271 29.6635 33.0101 29.6994 33.0039 29.7379C33.0039 29.7379 33.0366 29.7379 33.0448 29.7379C33.053 29.7379 33.0448 29.7597 33.0448 29.7679C33.0377 29.7866 33.0296 29.8048 33.0203 29.8225C33.0203 29.8497 32.9957 29.8961 33.0203 29.9125C33.0448 29.9288 33.0584 29.9125 33.0694 29.8934C33.0719 29.8845 33.0719 29.875 33.0694 29.8661C33.0694 29.8661 33.0694 29.8661 33.0694 29.8498C33.0694 29.8334 33.1075 29.8143 33.1157 29.8034Z" fill="url(#paint19_radial_668_24)"></path><path d="M32.9886 29.4764C32.9805 29.471 32.9711 29.4681 32.9614 29.4681C32.9516 29.4681 32.9421 29.471 32.9341 29.4764C32.9095 29.5037 32.9341 29.5637 32.9559 29.591C32.968 29.5835 32.9783 29.5736 32.9863 29.5618C32.9943 29.5501 32.9997 29.5368 33.0022 29.5228C33.005 29.512 33.005 29.5008 33.0022 29.49C33.001 29.487 32.9992 29.4842 32.9968 29.4819C32.9945 29.4795 32.9917 29.4777 32.9886 29.4764Z" fill="url(#paint20_radial_668_24)"></path><path d="M32.8457 29.7024C32.8566 29.6958 32.8652 29.6859 32.8701 29.6742C32.875 29.6624 32.876 29.6494 32.873 29.637C32.8679 29.6411 32.8637 29.6462 32.8609 29.6521C32.858 29.658 32.8566 29.6645 32.8566 29.6711C32.8566 29.6776 32.858 29.6841 32.8609 29.69C32.8637 29.6959 32.8679 29.7011 32.873 29.7051L32.8457 29.7024Z" fill="url(#paint21_radial_668_24)"></path><path d="M32.7868 29.7162C32.7786 29.7295 32.773 29.7443 32.7704 29.7598C32.7627 29.7619 32.7555 29.7657 32.7494 29.7709C32.7433 29.776 32.7384 29.7825 32.735 29.7898C32.7159 29.8171 32.7023 29.8525 32.6805 29.8798L32.6368 29.9235C32.6245 29.9339 32.6136 29.9458 32.6041 29.9589C32.5832 30.0048 32.5595 30.0495 32.5332 30.0925C32.5651 30.0678 32.5896 30.0348 32.6041 29.9971C32.6161 29.9736 32.6307 29.9517 32.6477 29.9316C32.6641 29.9125 32.6859 29.8962 32.705 29.8771C32.7265 29.8574 32.7493 29.8392 32.7732 29.8225H32.795C32.8014 29.8141 32.807 29.8049 32.8114 29.7953C32.825 29.7625 32.8223 29.7325 32.7868 29.7162Z" fill="url(#paint22_radial_668_24)"></path><path d="M32.4103 31.0663C32.4178 31.0624 32.4243 31.0568 32.4293 31.0499C32.4462 31.0298 32.4592 31.0067 32.4676 30.9817C32.4717 30.9537 32.4717 30.9252 32.4676 30.8972C32.4676 30.8672 32.4676 30.84 32.4676 30.81C32.5357 30.81 32.623 30.8099 32.6366 30.7254C32.6093 30.7254 32.5985 30.679 32.5903 30.6545C32.5821 30.6299 32.5903 30.5863 32.5712 30.5536C32.5521 30.5209 32.5712 30.4909 32.5712 30.4663C32.5712 30.4418 32.6203 30.4336 32.6475 30.4227H32.6639C32.6639 30.4227 32.6639 30.4227 32.6639 30.4063H32.6421H32.6039C32.6158 30.3921 32.6242 30.3753 32.6285 30.3572C32.6262 30.3297 32.6146 30.3038 32.5957 30.2836C32.5766 30.2672 32.5576 30.2563 32.5412 30.2399L32.5112 30.2045C32.5086 30.2011 32.5054 30.1984 32.5016 30.1965C32.4978 30.1946 32.4936 30.1936 32.4894 30.1936C32.4852 30.1936 32.4809 30.1946 32.4771 30.1965C32.4734 30.1984 32.4701 30.2011 32.4676 30.2045C32.4321 30.2263 32.4512 30.2754 32.4321 30.3163C32.413 30.3572 32.3448 30.4663 32.3148 30.4145C32.288 30.4445 32.2633 30.4764 32.2412 30.5099C32.2139 30.5372 32.1785 30.5508 32.1485 30.5781V30.5536C32.1389 30.5619 32.1316 30.5725 32.1273 30.5844C32.123 30.5964 32.1218 30.6092 32.1239 30.6218C32.1239 30.6627 32.1239 30.6954 32.0939 30.7254C32.0796 30.7294 32.0646 30.7294 32.0503 30.7254H32.0312C32.0121 30.7254 32.0039 30.7663 31.9794 30.769C31.9548 30.7718 31.9221 30.7527 31.903 30.7909C31.903 30.7909 31.9303 30.81 31.9248 30.8318C31.9235 30.8484 31.9179 30.8644 31.9085 30.8781C31.9085 30.8781 31.8812 30.8781 31.8703 30.8781H31.8321C31.8122 30.8841 31.795 30.8966 31.783 30.9136C31.7645 30.9427 31.7576 30.9778 31.7639 31.0118C31.7666 31.0317 31.7666 31.0519 31.7639 31.0718C31.7653 31.0936 31.7653 31.1154 31.7639 31.1372C31.7584 31.177 31.7584 31.2174 31.7639 31.2572C31.7629 31.2672 31.765 31.2773 31.7698 31.286C31.7747 31.2948 31.7822 31.3019 31.7912 31.3063C31.8403 31.3309 31.8158 31.3908 31.8103 31.4317H31.8567C31.8597 31.4527 31.8662 31.4729 31.8758 31.4918C31.9041 31.4698 31.9274 31.4418 31.944 31.4099V31.4509H31.9575C32.0012 31.4263 32.0312 31.3854 32.083 31.3827H32.154C32.184 31.3827 32.203 31.399 32.1976 31.4317C32.1976 31.4317 32.2957 31.32 32.3367 31.3554C32.3367 31.3554 32.3612 31.2736 32.3666 31.2272C32.3713 31.1975 32.3786 31.1683 32.3885 31.1399C32.3885 31.1209 32.3884 31.1045 32.3721 31.0881C32.3557 31.0717 32.3858 31.0663 32.4103 31.0663Z" fill="url(#paint23_radial_668_24)"></path><path d="M33.3785 29.7545C33.3722 29.7585 33.3668 29.7637 33.3626 29.7698C33.3583 29.7759 33.3554 29.7827 33.354 29.79C33.3508 29.8021 33.3447 29.8132 33.3361 29.8223C33.3275 29.8313 33.3168 29.8381 33.3049 29.8418H33.2749L33.2394 29.8636L33.1794 29.8909C33.1794 29.8909 33.1794 29.8745 33.1658 29.8909C33.1194 29.9509 33.0321 29.9618 32.9885 30.0218C32.9745 30.0263 32.9616 30.0337 32.9508 30.0435C32.94 30.0534 32.9314 30.0656 32.9258 30.0791C32.9232 30.0908 32.9232 30.1029 32.9258 30.1146C32.9258 30.1146 32.9394 30.1418 32.9258 30.1582C32.9244 30.1663 32.9244 30.1746 32.9258 30.1827C32.9558 30.1827 32.964 30.1528 32.9694 30.1282C32.9763 30.1014 32.9928 30.0781 33.0158 30.0627C33.0289 30.0533 33.0407 30.0423 33.0512 30.03C33.0648 30.0573 33.0867 30.0491 33.1058 30.03C33.1172 30.0135 33.1299 29.998 33.144 29.9837C33.1576 29.9837 33.1821 29.9837 33.1848 29.9837C33.1876 29.9837 33.1849 30.0082 33.1549 30.0164C33.1249 30.0246 33.1358 30.0491 33.1549 30.0655C33.174 30.0818 33.1849 30.1009 33.204 30.1091C33.2466 30.1317 33.2913 30.15 33.3376 30.1636C33.3758 30.1636 33.3976 30.1473 33.3894 30.1118C33.3812 30.0764 33.3676 30.06 33.3622 30.0327C33.3567 30.0055 33.3622 30.0082 33.3622 30.0136H33.3921C33.4848 30.0409 33.4549 29.88 33.444 29.8364C33.4331 29.7927 33.4194 29.73 33.3785 29.7545Z" fill="url(#paint24_radial_668_24)"></path><path d="M32.4769 31.9227C32.5062 31.9232 32.5352 31.9167 32.5615 31.9036C32.5806 31.9036 32.5942 31.8845 32.6187 31.8873C32.6286 31.8897 32.6388 31.8897 32.6487 31.8873C32.6515 31.8856 32.6539 31.8832 32.6555 31.8803C32.6571 31.8774 32.658 31.8742 32.658 31.8709C32.658 31.8676 32.6571 31.8644 32.6555 31.8615C32.6539 31.8586 32.6515 31.8562 32.6487 31.8545C32.6345 31.8498 32.6192 31.8498 32.6051 31.8545C32.5514 31.8495 32.4977 31.8651 32.4551 31.8982C32.4551 31.8982 32.4551 31.9173 32.4551 31.9282L32.4769 31.9227Z" fill="url(#paint25_radial_668_24)"></path><path d="M32.9658 31.8218C32.9903 31.8218 33.0148 31.8218 33.0393 31.7972C33.0639 31.7727 33.0721 31.77 33.0967 31.7591C33.1203 31.7489 33.145 31.7416 33.1703 31.7372C33.1804 31.7374 33.1904 31.7355 33.1997 31.7318C33.2091 31.728 33.2176 31.7225 33.2248 31.7154C33.19 31.706 33.1533 31.706 33.1184 31.7154L33.0557 31.7318C33.0344 31.7399 33.0142 31.751 32.9957 31.7645C32.9469 31.7859 32.8928 31.7926 32.8403 31.7836C32.813 31.7836 32.7776 31.7836 32.7503 31.7836C32.7339 31.7906 32.7191 31.8008 32.7066 31.8136H32.7203L32.7012 31.8381C32.7012 31.8381 32.7748 31.8163 32.813 31.8381C32.8642 31.8519 32.9187 31.8461 32.9658 31.8218Z" fill="url(#paint26_radial_668_24)"></path><path d="M32.5806 32.0101C32.6242 32.0141 32.668 32.0141 32.7115 32.0101C32.7415 32.0101 32.8098 32.0101 32.8234 31.9773C32.837 31.9446 32.7579 31.9201 32.7252 31.9173L32.6843 31.9037C32.6843 31.9037 32.6625 31.9037 32.657 31.9037C32.6549 31.9099 32.6549 31.9166 32.657 31.9228C32.629 31.9369 32.6047 31.9575 32.5861 31.9828C32.5861 31.9828 32.5779 32.0073 32.5806 32.0101Z" fill="url(#paint27_radial_668_24)"></path><path d="M33.2403 30.9244H33.2131C33.1831 30.9244 33.1504 30.9435 33.1504 30.9681C33.1504 30.9926 33.2159 30.9953 33.235 30.9926C33.2513 30.9913 33.2677 30.9913 33.284 30.9926C33.3004 30.9926 33.3386 30.9926 33.344 30.9708C33.3495 30.949 33.2949 30.9272 33.2513 30.9299L33.2403 30.9244Z" fill="url(#paint28_radial_668_24)"></path><path d="M33.5841 30.8971C33.6052 30.8949 33.6257 30.8884 33.6441 30.878C33.6441 30.878 33.6168 30.8425 33.5896 30.848C33.5526 30.8534 33.5188 30.8718 33.4941 30.8998H33.5296C33.5459 30.8944 33.565 30.8998 33.5841 30.8971Z" fill="url(#paint29_radial_668_24)"></path><path d="M33.4984 30.7934C33.5257 30.7934 33.5557 30.7934 33.583 30.7934C33.5982 30.7892 33.6142 30.7892 33.6293 30.7934C33.632 30.8021 33.637 30.81 33.6437 30.8163C33.6504 30.8225 33.6586 30.8268 33.6675 30.8288C33.666 30.8189 33.666 30.8088 33.6675 30.7989C33.6642 30.7894 33.6574 30.7815 33.6485 30.777C33.6321 30.777 33.6184 30.777 33.6102 30.7552C33.6021 30.7334 33.6321 30.7279 33.6457 30.7225C33.6594 30.717 33.6893 30.7225 33.6893 30.6898C33.6893 30.657 33.6621 30.6679 33.6457 30.6652C33.6294 30.6625 33.7003 30.6652 33.7084 30.6325C33.712 30.6183 33.7106 30.6034 33.7047 30.5901C33.6988 30.5767 33.6886 30.5657 33.6757 30.5589C33.6757 30.5589 33.6375 30.6025 33.6348 30.5998C33.63 30.5915 33.6275 30.582 33.6275 30.5725C33.6275 30.5629 33.63 30.5535 33.6348 30.5452C33.6593 30.507 33.7057 30.4907 33.7302 30.4552C33.7548 30.4198 33.7302 30.4416 33.7302 30.4416C33.6593 30.4416 33.6212 30.4825 33.5912 30.5397C33.5521 30.6023 33.5384 30.6774 33.553 30.7497C33.5439 30.7481 33.5346 30.7501 33.527 30.7551C33.5194 30.7602 33.5141 30.7681 33.5121 30.777C33.4685 30.7688 33.4712 30.7934 33.4984 30.7934Z" fill="url(#paint30_radial_668_24)"></path><path d="M33.3792 31.0826C33.375 31.089 33.3693 31.0943 33.3627 31.098C33.3561 31.1018 33.3487 31.104 33.341 31.1044C33.341 31.1044 33.3274 31.1044 33.3219 31.1044C33.3202 31.106 33.3188 31.1078 33.3179 31.11C33.3169 31.1121 33.3164 31.1144 33.3164 31.1167C33.3164 31.119 33.3169 31.1213 33.3179 31.1234C33.3188 31.1256 33.3202 31.1274 33.3219 31.129C33.341 31.1453 33.3656 31.129 33.3874 31.1481C33.4092 31.1672 33.4583 31.1262 33.4747 31.099C33.491 31.0717 33.4746 31.0608 33.4446 31.0608C33.4446 31.0608 33.3928 31.0663 33.3792 31.0826Z" fill="url(#paint31_radial_668_24)"></path><path d="M33.5445 31.0472L33.5254 31.0827C33.5443 31.0868 33.5638 31.0868 33.5827 31.0827C33.5842 31.0972 33.5842 31.1118 33.5827 31.1263C33.6137 31.1245 33.6442 31.1171 33.6727 31.1045C33.7054 31.0881 33.73 31.0254 33.7709 31.0635C33.8118 31.1017 33.8281 31.0799 33.8636 31.0881C33.899 31.0963 33.9236 31.1181 33.9618 31.1045C33.9555 31.0825 33.9407 31.0639 33.9208 31.0526C33.9045 31.0526 33.8717 31.0526 33.8663 31.0172C33.8608 30.9817 33.7982 30.9844 33.7682 30.9872C33.7382 30.9899 33.7163 30.9872 33.6891 30.9872C33.6555 30.9899 33.6217 30.9899 33.5881 30.9872C33.5805 30.9857 33.5726 30.9864 33.5653 30.9892C33.5581 30.9921 33.5517 30.997 33.5472 31.0033C33.5426 31.0096 33.5399 31.017 33.5394 31.0248C33.539 31.0326 33.5407 31.0404 33.5445 31.0472Z" fill="url(#paint32_radial_668_24)"></path><path d="M33.8186 30.916C33.8405 30.916 33.8841 30.9351 33.9005 30.916C33.9168 30.8969 33.9005 30.8861 33.9005 30.8751C33.8947 30.8657 33.8873 30.8574 33.8786 30.8506C33.8708 30.8432 33.8616 30.8376 33.8514 30.8342C33.8514 30.8342 33.8378 30.8342 33.835 30.8342C33.8152 30.8404 33.7985 30.8541 33.7886 30.8724C33.7341 30.8915 33.7805 30.9106 33.8186 30.916Z" fill="url(#paint33_radial_668_24)"></path><path d="M34.0529 31.4861H34.0338C34.006 31.5071 33.9768 31.5262 33.9465 31.5433C33.9301 31.5433 33.9274 31.5734 33.922 31.5924C33.9121 31.6118 33.9074 31.6334 33.9083 31.6552C33.9083 31.6552 33.9765 31.6088 34.001 31.5788C34.0237 31.5513 34.0413 31.5199 34.0529 31.4861Z" fill="url(#paint34_radial_668_24)"></path><path d="M34.2095 31.2709C34.2095 31.2709 34.2095 31.2491 34.2095 31.2436C34.2095 31.2382 34.1877 31.2436 34.1795 31.2436C34.1624 31.252 34.1467 31.2631 34.1331 31.2764C34.1331 31.2764 34.1113 31.2763 34.1113 31.2982C34.1113 31.32 34.1522 31.3363 34.1795 31.3254C34.1867 31.3229 34.1933 31.3189 34.1989 31.3137C34.2045 31.3086 34.209 31.3024 34.2122 31.2954L34.2095 31.2709Z" fill="url(#paint35_radial_668_24)"></path><path d="M34.2751 31.4239C34.2751 31.4458 34.2751 31.4757 34.3187 31.473C34.3366 31.4678 34.3533 31.459 34.3678 31.4473C34.3823 31.4356 34.3944 31.4212 34.4033 31.4048C34.4169 31.3803 34.4469 31.323 34.4033 31.3012C34.3597 31.2794 34.3815 31.2766 34.3842 31.2548C34.3859 31.2514 34.3867 31.2477 34.3867 31.2439C34.3867 31.2401 34.3859 31.2364 34.3842 31.233C34.3727 31.2276 34.3601 31.2249 34.3474 31.2249C34.3347 31.2249 34.3221 31.2276 34.3106 31.233C34.2587 31.233 34.286 31.3176 34.286 31.3394C34.286 31.3612 34.2669 31.3721 34.2642 31.3858C34.2615 31.3994 34.2696 31.4103 34.2751 31.4239Z" fill="url(#paint36_radial_668_24)"></path><path d="M36.0496 31.23C36.1123 31.23 36.1669 31.2736 36.2297 31.29L36.3196 31.3091C36.34 31.316 36.362 31.316 36.3823 31.3091C36.4009 31.2942 36.4183 31.2777 36.4342 31.26C36.4533 31.2436 36.4833 31.26 36.5051 31.2409C36.5134 31.2374 36.5208 31.2322 36.527 31.2257C36.5332 31.2192 36.5379 31.2115 36.541 31.203C36.5441 31.1946 36.5454 31.1856 36.5449 31.1766C36.5443 31.1677 36.5419 31.1589 36.5378 31.1509C36.5705 31.1346 36.5787 31.1155 36.5678 31.0746C36.5678 31.0746 36.4887 31.0473 36.4614 31.0746C36.4568 31.0804 36.4542 31.0876 36.4542 31.095C36.4542 31.1025 36.4568 31.1097 36.4614 31.1155C36.4614 31.1155 36.4614 31.1318 36.4614 31.1373H36.426C36.4194 31.1501 36.4112 31.1621 36.4014 31.1728C36.3605 31.1482 36.3033 31.1728 36.2624 31.1728C36.2214 31.1728 36.1532 31.1509 36.1069 31.1728C36.1012 31.1691 36.0946 31.1672 36.0878 31.1672C36.0811 31.1672 36.0744 31.1691 36.0687 31.1728C36.0687 31.1728 36.0442 31.23 36.0496 31.23Z" fill="url(#paint37_radial_668_24)"></path><path d="M36.2556 30.8451C36.2625 30.8579 36.2722 30.869 36.284 30.8776C36.2958 30.8861 36.3094 30.8918 36.3238 30.8942H36.3483C36.3686 30.8945 36.388 30.9022 36.4029 30.916C36.4274 30.9351 36.4547 30.946 36.4792 30.9651L36.5529 31.0196C36.5774 31.0387 36.6292 31.0578 36.6129 31.0987C36.7056 31.0987 36.6565 30.9897 36.6129 30.9678H36.5747C36.5556 30.9678 36.5501 30.946 36.5447 30.9269C36.5392 30.9078 36.4983 30.8942 36.4738 30.886C36.4492 30.8778 36.4111 30.8478 36.3756 30.8369L36.272 30.8206H36.2556C36.2556 30.8206 36.2474 30.8424 36.2556 30.8451Z" fill="url(#paint38_radial_668_24)"></path><path d="M37.0088 31.3881C37.0075 31.3718 37.0031 31.3559 36.9956 31.3414C36.9881 31.3269 36.9777 31.314 36.9652 31.3035C36.9564 31.2941 36.945 31.2874 36.9324 31.2845C36.9286 31.2768 36.9231 31.2703 36.9161 31.2653C36.9036 31.2482 36.8927 31.2299 36.8834 31.2108C36.8834 31.1917 36.8452 31.1672 36.8288 31.1917C36.8125 31.2162 36.8289 31.2435 36.8534 31.2572C36.878 31.2708 36.8834 31.2817 36.8861 31.3063C36.8835 31.3243 36.8835 31.3427 36.8861 31.3608C36.8909 31.3764 36.899 31.3908 36.9098 31.403C36.9206 31.4153 36.9339 31.425 36.9488 31.4317C36.9557 31.4345 36.9632 31.4355 36.9706 31.4346C36.978 31.4337 36.985 31.431 36.991 31.4266C36.997 31.4222 37.0018 31.4164 37.0049 31.4097C37.008 31.4029 37.0094 31.3955 37.0088 31.3881Z" fill="url(#paint39_radial_668_24)"></path><path d="M37.0394 31.3989C37.053 31.4207 37.0912 31.4316 37.1103 31.4425L37.1266 31.4616C37.1256 31.4698 37.1256 31.478 37.1266 31.4862C37.1255 31.4906 37.1255 31.4953 37.1266 31.4998C37.1312 31.5024 37.1364 31.5038 37.1417 31.5038C37.1469 31.5038 37.1521 31.5024 37.1566 31.4998H37.1785C37.1785 31.4998 37.1976 31.4998 37.1785 31.4834C37.1672 31.4738 37.157 31.4628 37.1485 31.4507C37.1471 31.4333 37.1415 31.4164 37.1321 31.4016C37.1106 31.3796 37.0858 31.3612 37.0584 31.3471H37.0367C37.0259 31.3444 37.0147 31.3444 37.0039 31.3471C37.023 31.3771 37.0285 31.3962 37.0394 31.3989Z" fill="url(#paint40_radial_668_24)"></path><path d="M36.4371 31.7669C36.4343 31.7565 36.4274 31.7477 36.418 31.7423C36.4371 31.7423 36.4016 31.7096 36.3935 31.7041H36.3717C36.3717 31.7041 36.3471 31.7041 36.3444 31.6796C36.3426 31.6778 36.3405 31.6764 36.3381 31.6754C36.3358 31.6744 36.3333 31.6739 36.3307 31.6739C36.3282 31.6739 36.3257 31.6744 36.3233 31.6754C36.321 31.6764 36.3189 31.6778 36.3171 31.6796C36.298 31.6796 36.2735 31.6796 36.2571 31.6578C36.2407 31.636 36.2298 31.6578 36.2407 31.6769C36.2585 31.6974 36.2824 31.7117 36.3089 31.7178C36.316 31.7303 36.3264 31.7407 36.3389 31.7478L36.3907 31.7723C36.3907 31.7723 36.3907 31.7914 36.4044 31.7723L36.4371 31.7669Z" fill="url(#paint41_radial_668_24)"></path><path d="M36.6068 31.6908C36.6068 31.6908 36.6204 31.6908 36.6259 31.6908C36.6277 31.6926 36.6298 31.6941 36.6321 31.6951C36.6345 31.696 36.637 31.6966 36.6395 31.6966C36.6421 31.6966 36.6446 31.696 36.6469 31.6951C36.6493 31.6941 36.6513 31.6926 36.6531 31.6908C36.655 31.6875 36.656 31.6837 36.656 31.6799C36.656 31.6761 36.655 31.6723 36.6531 31.669C36.6547 31.6663 36.6555 31.6633 36.6554 31.6602C36.6554 31.6571 36.6544 31.6541 36.6527 31.6516C36.651 31.649 36.6486 31.647 36.6458 31.6457C36.643 31.6445 36.6399 31.644 36.6368 31.6444H36.5959H36.5768H36.555C36.555 31.6444 36.5386 31.6444 36.5413 31.6444C36.544 31.6444 36.555 31.6608 36.5659 31.6635H36.6013H36.6204C36.6175 31.6641 36.6148 31.6653 36.6124 31.6671C36.6101 31.6688 36.6081 31.6711 36.6068 31.6738C36.6055 31.6764 36.6048 31.6793 36.6048 31.6823C36.6048 31.6853 36.6055 31.6882 36.6068 31.6908Z" fill="url(#paint42_radial_668_24)"></path><path d="M36.7446 31.9334H36.7037C36.6997 31.9222 36.692 31.9126 36.6819 31.9061C36.6655 31.9061 36.6465 31.9062 36.6328 31.8871C36.6192 31.868 36.6028 31.887 36.6165 31.9061C36.6301 31.9252 36.6764 31.9198 36.6737 31.9525C36.671 31.9852 36.6737 31.9716 36.6901 31.9689C36.7082 31.9718 36.7266 31.9718 36.7446 31.9689H36.7637C36.7661 31.9676 36.7681 31.9659 36.7698 31.9639C36.7715 31.9618 36.7727 31.9595 36.7735 31.9569C36.7742 31.9544 36.7745 31.9517 36.7742 31.9491C36.7739 31.9465 36.7732 31.9439 36.7719 31.9416C36.7707 31.9393 36.769 31.9372 36.7669 31.9355C36.7649 31.9339 36.7625 31.9326 36.7599 31.9319C36.7574 31.9311 36.7548 31.9308 36.7522 31.9311C36.7495 31.9314 36.747 31.9322 36.7446 31.9334Z" fill="url(#paint43_radial_668_24)"></path><path d="M37.3798 31.6119C37.3798 31.6282 37.4044 31.6282 37.4153 31.6419C37.4262 31.6555 37.448 31.6419 37.4453 31.6255C37.4426 31.6091 37.4453 31.6037 37.4234 31.5955C37.4213 31.5945 37.419 31.594 37.4167 31.594C37.4143 31.594 37.4119 31.5945 37.4098 31.5955L37.3908 31.5737H37.3744C37.3744 31.5464 37.3499 31.5464 37.3253 31.5491C37.3189 31.5421 37.3106 31.5369 37.3015 31.534C37.2924 31.5312 37.2828 31.5307 37.2734 31.5328V31.5546H37.2898H37.3035C37.3035 31.5546 37.3035 31.5709 37.3171 31.5709C37.3239 31.5693 37.331 31.5692 37.3379 31.5704C37.3448 31.5716 37.3513 31.5742 37.3572 31.578C37.3631 31.5818 37.3681 31.5868 37.372 31.5926C37.3759 31.5984 37.3785 31.605 37.3798 31.6119Z" fill="url(#paint44_radial_668_24)"></path><path d="M37.4574 31.789H37.4846H37.5038H37.5229C37.5229 31.8054 37.5419 31.8272 37.561 31.8299C37.5801 31.8326 37.561 31.8299 37.5747 31.8435C37.5747 31.8435 37.5883 31.8244 37.5747 31.819C37.561 31.8135 37.5419 31.7754 37.5201 31.7563C37.5117 31.7382 37.4972 31.7238 37.4792 31.7154C37.4792 31.7154 37.4519 31.7154 37.4492 31.729H37.4274L37.3674 31.699L37.3892 31.7208C37.3892 31.7208 37.3892 31.7208 37.3892 31.7372H37.4028C37.4028 31.7399 37.4034 31.7426 37.4045 31.7451C37.4056 31.7477 37.4073 31.7499 37.4093 31.7517C37.4114 31.7536 37.4139 31.7549 37.4165 31.7557C37.4192 31.7565 37.4219 31.7567 37.4247 31.7563C37.4247 31.7563 37.4247 31.7808 37.4492 31.7808L37.4574 31.789Z" fill="url(#paint45_radial_668_24)"></path><path d="M37.5721 31.7179H37.5857C37.591 31.7354 37.5998 31.7517 37.6115 31.7658C37.6232 31.7798 37.6376 31.7913 37.6539 31.7997H37.673C37.673 31.7997 37.692 31.7997 37.6866 31.7997C37.6798 31.7888 37.6691 31.781 37.6566 31.7779C37.6566 31.7779 37.6702 31.7479 37.6566 31.7425C37.643 31.737 37.6103 31.6852 37.6048 31.6634C37.5994 31.6415 37.572 31.647 37.5666 31.6634C37.5541 31.6436 37.5466 31.6212 37.5448 31.5979C37.5398 31.6277 37.5398 31.6581 37.5448 31.6879C37.5448 31.6879 37.5666 31.7179 37.5721 31.7179Z" fill="url(#paint46_radial_668_24)"></path><path d="M37.6365 31.8654C37.6174 31.8654 37.6146 31.8927 37.6365 31.8927C37.6433 31.8984 37.652 31.9016 37.661 31.9016C37.67 31.9016 37.6786 31.8984 37.6855 31.8927C37.6855 31.8927 37.6855 31.9117 37.6855 31.9172C37.6855 31.9226 37.7183 31.9172 37.7292 31.9172C37.7401 31.9172 37.7482 31.9172 37.7455 31.9008C37.7449 31.897 37.7429 31.8935 37.7399 31.891C37.7369 31.8885 37.7331 31.8871 37.7292 31.8872H37.7156C37.7156 31.8572 37.6637 31.8463 37.6337 31.8408L37.6365 31.8654Z" fill="url(#paint47_radial_668_24)"></path><path d="M37.874 33.229C37.8794 33.2334 37.8861 33.2359 37.8931 33.2359C37.9 33.2359 37.9068 33.2334 37.9122 33.229H37.9285C37.9259 33.2535 37.9259 33.2781 37.9285 33.3026C37.929 33.3065 37.9304 33.3103 37.9326 33.3136C37.9348 33.3169 37.9378 33.3195 37.9413 33.3214C37.9447 33.3233 37.9486 33.3243 37.9526 33.3243C37.9565 33.3244 37.9604 33.3235 37.964 33.3217C38.0022 33.349 38.0431 33.3572 38.0513 33.409C38.049 33.4151 38.049 33.4219 38.0513 33.4281C38.0592 33.4492 38.0735 33.4673 38.0921 33.4799C38.0992 33.4826 38.107 33.4826 38.114 33.4799C38.114 33.4799 38.114 33.4799 38.1331 33.4799C38.1522 33.4799 38.1467 33.4799 38.1495 33.4799C38.1507 33.4745 38.1507 33.4689 38.1495 33.4635C38.1495 33.4635 38.1495 33.439 38.1495 33.4281C38.1488 33.4228 38.1462 33.4179 38.1421 33.4144C38.1381 33.4109 38.133 33.4089 38.1276 33.409L38.0949 33.3517L38.0622 33.3135C38.0634 33.3072 38.0634 33.3008 38.0622 33.2945C38.0622 33.2945 38.0622 33.2781 38.0622 33.2726C38.0622 33.2672 38.0376 33.2344 38.024 33.2181C38.0199 33.2154 38.0152 33.214 38.0104 33.214C38.0055 33.214 38.0008 33.2154 37.9967 33.2181C38.0008 33.2029 38.0008 33.1869 37.9967 33.1717C37.9967 33.1499 37.9585 33.1553 37.9503 33.1717C37.9517 33.1554 37.9517 33.139 37.9503 33.1226C37.9503 33.1161 37.9478 33.1099 37.9432 33.1053C37.9386 33.1007 37.9323 33.0981 37.9258 33.0981C37.9193 33.0981 37.913 33.1007 37.9084 33.1053C37.9038 33.1099 37.9013 33.1161 37.9013 33.1226C37.8861 33.0956 37.8759 33.066 37.8713 33.0353C37.8713 33.0317 37.8698 33.0283 37.8673 33.0257C37.8647 33.0232 37.8613 33.0217 37.8576 33.0217C37.854 33.0217 37.8505 33.0232 37.848 33.0257C37.8454 33.0283 37.844 33.0317 37.844 33.0353C37.8359 33.0648 37.8359 33.0959 37.844 33.1254C37.8499 33.161 37.86 33.1957 37.874 33.229Z" fill="url(#paint48_radial_668_24)"></path><path d="M38.2344 33.2911C38.2344 33.2911 38.2344 33.2911 38.2344 33.3102C38.2359 33.312 38.2378 33.3134 38.2399 33.3143C38.242 33.3153 38.2444 33.3158 38.2467 33.3158C38.249 33.3158 38.2513 33.3153 38.2534 33.3143C38.2555 33.3134 38.2574 33.312 38.2589 33.3102C38.2617 33.3013 38.2617 33.2918 38.2589 33.283C38.2589 33.283 38.2426 33.2884 38.2344 33.2911Z" fill="url(#paint49_radial_668_24)"></path><path d="M38.1856 32.583C38.1839 32.5859 38.183 32.5892 38.183 32.5925C38.183 32.5959 38.1839 32.5992 38.1856 32.6021C38.1871 32.6038 38.189 32.6052 38.1911 32.6062C38.1932 32.6071 38.1955 32.6076 38.1978 32.6076C38.2001 32.6076 38.2024 32.6071 38.2045 32.6062C38.2067 32.6052 38.2086 32.6038 38.2101 32.6021C38.2231 32.6118 38.2342 32.6238 38.2428 32.6375L38.2264 32.6184C38.2264 32.6184 38.2074 32.6184 38.2101 32.6184C38.2129 32.6184 38.2101 32.6403 38.2101 32.6512C38.2113 32.663 38.2113 32.6748 38.2101 32.6866C38.21 32.6902 38.2108 32.6937 38.2126 32.6968C38.2144 32.6999 38.2169 32.7024 38.2201 32.7041C38.2232 32.7058 38.2267 32.7066 38.2302 32.7064C38.2338 32.7062 38.2372 32.705 38.2401 32.703C38.2426 32.7044 38.2454 32.7052 38.2483 32.7052C38.2512 32.7052 38.254 32.7044 38.2565 32.703C38.2565 32.703 38.2565 32.703 38.2565 32.6866C38.2565 32.6703 38.2565 32.643 38.2428 32.6212C38.2292 32.5994 38.1774 32.5693 38.191 32.5503C38.1929 32.5469 38.194 32.5432 38.194 32.5394C38.194 32.5355 38.1929 32.5318 38.191 32.5285L38.1719 32.5121C38.1745 32.4904 38.1745 32.4684 38.1719 32.4467C38.1706 32.4548 38.1706 32.4631 38.1719 32.4712C38.1501 32.4712 38.1474 32.4984 38.1528 32.5203C38.1597 32.543 38.1708 32.5643 38.1856 32.583Z" fill="url(#paint50_radial_668_24)"></path><path d="M38.3461 32.7927V32.7736V32.7518C38.3461 32.7518 38.3461 32.7273 38.3243 32.7354C38.3149 32.7427 38.3077 32.7523 38.3033 32.7634C38.299 32.7744 38.2978 32.7865 38.2997 32.7982C38.3134 32.8172 38.3461 32.8118 38.3461 32.7927Z" fill="url(#paint51_radial_668_24)"></path><path d="M38.2931 32.8719C38.2903 32.8789 38.2903 32.8867 38.2931 32.8937C38.2931 32.8937 38.3067 32.9155 38.3176 32.9128C38.3198 32.9125 38.3219 32.9117 38.3238 32.9106C38.3256 32.9094 38.3272 32.9079 38.3285 32.9061C38.3298 32.9044 38.3307 32.9023 38.3312 32.9002C38.3316 32.898 38.3317 32.8958 38.3313 32.8937C38.3326 32.8892 38.3326 32.8845 38.3313 32.8801C38.3318 32.8776 38.3319 32.875 38.3314 32.8725C38.331 32.8699 38.3299 32.8675 38.3286 32.8654C38.3272 32.8632 38.3254 32.8614 38.3233 32.8599C38.3212 32.8584 38.3188 32.8574 38.3163 32.8569C38.3138 32.8563 38.3112 32.8563 38.3086 32.8568C38.3061 32.8572 38.3037 32.8582 38.3016 32.8596C38.2994 32.861 38.2976 32.8628 38.2961 32.8649C38.2947 32.867 38.2936 32.8694 38.2931 32.8719Z" fill="url(#paint52_radial_668_24)"></path><path d="M38.3467 33.0241C38.3454 33.0313 38.3454 33.0387 38.3467 33.0459C38.3467 33.0459 38.363 33.0459 38.3657 33.0459C38.3685 33.0459 38.3657 33.0459 38.3657 33.0241C38.3657 33.0023 38.3467 33.0132 38.3467 33.0241Z" fill="url(#paint53_radial_668_24)"></path><path d="M39.2507 33.0271C39.2474 33.0251 39.2437 33.0242 39.2399 33.0242C39.236 33.0242 39.2323 33.0251 39.229 33.0271C39.2317 33.023 39.2331 33.0183 39.2331 33.0134C39.2331 33.0086 39.2317 33.0038 39.229 32.9998C39.2199 32.9911 39.2141 32.9795 39.2126 32.9671C39.2125 32.963 39.2112 32.9591 39.209 32.9557C39.2067 32.9523 39.2036 32.9496 39.1999 32.9479C39.1962 32.9462 39.1922 32.9456 39.1881 32.9461C39.1841 32.9466 39.1803 32.9482 39.1772 32.9507C39.1499 32.9507 39.1498 32.9889 39.1417 33.0134C39.1394 33.0106 39.1364 33.0083 39.1331 33.0067C39.1298 33.0051 39.1262 33.0043 39.1226 33.0043C39.1189 33.0043 39.1153 33.0051 39.112 33.0067C39.1087 33.0083 39.1058 33.0106 39.1035 33.0134C39.1035 33.0625 39.1362 33.0871 39.1744 33.1089C39.1777 33.1108 39.1814 33.1118 39.1853 33.1118C39.1891 33.1118 39.1929 33.1108 39.1962 33.1089C39.2061 33.1113 39.2164 33.1113 39.2262 33.1089C39.2281 33.1123 39.2309 33.1151 39.2342 33.1171C39.2376 33.1191 39.2414 33.1201 39.2453 33.1201C39.2492 33.1201 39.253 33.1191 39.2564 33.1171C39.2597 33.1151 39.2625 33.1123 39.2644 33.1089C39.2672 33.0972 39.2672 33.0851 39.2644 33.0734C39.2644 33.0734 39.2616 33.0271 39.2507 33.0271Z" fill="url(#paint54_radial_668_24)"></path><path d="M39.3323 32.8502C39.3278 32.8435 39.3217 32.838 39.3146 32.8342C39.3074 32.8304 39.2995 32.8284 39.2914 32.8284C39.2833 32.8282 39.2754 32.8305 39.2686 32.8349C39.2618 32.8392 39.2564 32.8455 39.2532 32.8529C39.2504 32.8594 39.249 32.8664 39.249 32.8734C39.249 32.8804 39.2504 32.8874 39.2532 32.8938C39.2504 32.8958 39.2481 32.8985 39.2465 32.9016C39.245 32.9047 39.2441 32.9081 39.2441 32.9116C39.2441 32.915 39.245 32.9184 39.2465 32.9215C39.2481 32.9246 39.2504 32.9273 39.2532 32.9293C39.2752 32.9374 39.2994 32.9374 39.3214 32.9293C39.3282 32.934 39.3363 32.9365 39.3446 32.9365C39.3529 32.9365 39.361 32.934 39.3678 32.9293C39.3978 32.902 39.365 32.8584 39.3323 32.8502Z" fill="url(#paint55_radial_668_24)"></path><path d="M39.1982 33.1831H39.1846C39.1748 33.1803 39.1644 33.1803 39.1546 33.1831C39.1511 33.1845 39.148 33.187 39.1459 33.1902C39.1438 33.1933 39.1426 33.197 39.1426 33.2008C39.1426 33.2047 39.1438 33.2084 39.1459 33.2116C39.148 33.2147 39.1511 33.2172 39.1546 33.2186C39.168 33.2223 39.1821 33.2223 39.1955 33.2186C39.1791 33.2186 39.1982 33.1859 39.1982 33.1831Z" fill="url(#paint56_radial_668_24)"></path><path d="M37.2218 31.5928C37.2218 31.5656 37.2054 31.5465 37.1727 31.5437H37.1372C37.1219 31.5409 37.1062 31.5409 37.0909 31.5437H37.0418H37.0063C36.9927 31.5437 36.9927 31.5683 37.0063 31.5683H37.0555C37.055 31.5716 37.0553 31.575 37.0564 31.5782C37.0575 31.5814 37.0593 31.5843 37.0617 31.5867C37.064 31.589 37.0669 31.5908 37.0701 31.5919C37.0733 31.593 37.0766 31.5933 37.08 31.5928H37.0991C37.1281 31.6215 37.1652 31.6405 37.2054 31.6474C37.2054 31.6474 37.2054 31.6474 37.2191 31.6474C37.2381 31.6555 37.2584 31.6601 37.279 31.661C37.279 31.661 37.2927 31.6474 37.279 31.6392C37.273 31.628 37.2649 31.6182 37.2551 31.6103C37.2452 31.6023 37.2339 31.5964 37.2218 31.5928Z" fill="url(#paint57_radial_668_24)"></path><defs><linearGradient id="paint0_linear_668_24" x1="39.666" y1="30.3874" x2="70.0149" y2="30.3874" gradientUnits="userSpaceOnUse"><stop stop-color="#5DC2D3"></stop><stop offset="1" stop-color="#62BED1"></stop></linearGradient><linearGradient id="paint1_linear_668_24" x1="36.2319" y1="28.6381" x2="62.1282" y2="12.7995" gradientUnits="userSpaceOnUse"><stop stop-color="#62C3C9"></stop><stop offset="1" stop-color="#69C5C5"></stop></linearGradient><linearGradient id="paint2_linear_668_24" x1="33.2927" y1="27.7697" x2="47.0543" y2="3.35609" gradientUnits="userSpaceOnUse"><stop stop-color="#73C7AF"></stop><stop offset="1" stop-color="#6EC5AF"></stop></linearGradient><linearGradient id="paint3_linear_668_24" x1="29.6708" y1="30.7691" x2="29.9203" y2="0.334604" gradientUnits="userSpaceOnUse"><stop stop-color="#7DCA9F"></stop><stop offset="1" stop-color="#78C9AA"></stop></linearGradient><linearGradient id="paint4_linear_668_24" x1="23.6972" y1="19.1629" x2="17.6837" y2="22.0057" gradientUnits="userSpaceOnUse"><stop stop-color="#83CB8B"></stop><stop offset="1" stop-color="#82CC97"></stop></linearGradient><linearGradient id="paint5_linear_668_24" x1="27.0975" y1="37.0126" x2="3.1462" y2="22.0057" gradientUnits="userSpaceOnUse"><stop stop-color="#8FD07D"></stop><stop offset="1" stop-color="#8FD07B"></stop></linearGradient><radialGradient id="paint6_radial_668_24" cx="0" cy="0" r="1" gradientUnits="userSpaceOnUse" gradientTransform="translate(33.4702 33.1989) scale(7.02264)"><stop offset="0.08" stop-color="#3551A9"></stop><stop offset="0.33" stop-color="#3551A9"></stop><stop offset="0.77" stop-color="#152553"></stop></radialGradient><radialGradient id="paint7_radial_668_24" cx="0" cy="0" r="1" gradientUnits="userSpaceOnUse" gradientTransform="translate(30.9242 30.5863) scale(12.363 12.3622)"><stop stop-color="#E4F591"></stop><stop offset="0.2" stop-color="#A0AB22"></stop><stop offset="0.39" stop-color="#818A2B"></stop><stop offset="0.56" stop-color="#648D38"></stop><stop offset="0.74" stop-color="#858354"></stop><stop offset="0.88" stop-color="#6A6222"></stop><stop offset="1" stop-color="#303402"></stop></radialGradient><radialGradient id="paint8_radial_668_24" cx="0" cy="0" r="1" gradientUnits="userSpaceOnUse" gradientTransform="translate(30.9253 30.5861) scale(12.3653 12.3652)"><stop stop-color="#E4F591"></stop><stop offset="0.2" stop-color="#A0AB22"></stop><stop offset="0.39" stop-color="#818A2B"></stop><stop offset="0.56" stop-color="#648D38"></stop><stop offset="0.74" stop-color="#858354"></stop><stop offset="0.88" stop-color="#6A6222"></stop><stop offset="1" stop-color="#303402"></stop></radialGradient><radialGradient id="paint9_radial_668_24" cx="0" cy="0" r="1" gradientUnits="userSpaceOnUse" gradientTransform="translate(30.921 30.5867) scale(12.3654 12.3653)"><stop stop-color="#E4F591"></stop><stop offset="0.2" stop-color="#A0AB22"></stop><stop offset="0.39" stop-color="#818A2B"></stop><stop offset="0.56" stop-color="#648D38"></stop><stop offset="0.74" stop-color="#858354"></stop><stop offset="0.88" stop-color="#6A6222"></stop><stop offset="1" stop-color="#303402"></stop></radialGradient><radialGradient id="paint10_radial_668_24" cx="0" cy="0" r="1" gradientUnits="userSpaceOnUse" gradientTransform="translate(30.9128 30.5889) scale(12.3639 12.3653)"><stop stop-color="#E4F591"></stop><stop offset="0.2" stop-color="#A0AB22"></stop><stop offset="0.39" stop-color="#818A2B"></stop><stop offset="0.56" stop-color="#648D38"></stop><stop offset="0.74" stop-color="#858354"></stop><stop offset="0.88" stop-color="#6A6222"></stop><stop offset="1" stop-color="#303402"></stop></radialGradient><radialGradient id="paint11_radial_668_24" cx="0" cy="0" r="1" gradientUnits="userSpaceOnUse" gradientTransform="translate(30.9209 30.5861) scale(12.362 12.3629)"><stop stop-color="#E4F591"></stop><stop offset="0.2" stop-color="#A0AB22"></stop><stop offset="0.39" stop-color="#818A2B"></stop><stop offset="0.56" stop-color="#648D38"></stop><stop offset="0.74" stop-color="#858354"></stop><stop offset="0.88" stop-color="#6A6222"></stop><stop offset="1" stop-color="#303402"></stop></radialGradient><radialGradient id="paint12_radial_668_24" cx="0" cy="0" r="1" gradientUnits="userSpaceOnUse" gradientTransform="translate(30.9191 30.5888) scale(12.3644 12.3624)"><stop stop-color="#E4F591"></stop><stop offset="0.2" stop-color="#A0AB22"></stop><stop offset="0.39" stop-color="#818A2B"></stop><stop offset="0.56" stop-color="#648D38"></stop><stop offset="0.74" stop-color="#858354"></stop><stop offset="0.88" stop-color="#6A6222"></stop><stop offset="1" stop-color="#303402"></stop></radialGradient><radialGradient id="paint13_radial_668_24" cx="0" cy="0" r="1" gradientUnits="userSpaceOnUse" gradientTransform="translate(30.9208 30.5889) scale(12.3567 12.3552)"><stop stop-color="#E4F591"></stop><stop offset="0.2" stop-color="#A0AB22"></stop><stop offset="0.39" stop-color="#818A2B"></stop><stop offset="0.56" stop-color="#648D38"></stop><stop offset="0.74" stop-color="#858354"></stop><stop offset="0.88" stop-color="#6A6222"></stop><stop offset="1" stop-color="#303402"></stop></radialGradient><radialGradient id="paint14_radial_668_24" cx="0" cy="0" r="1" gradientUnits="userSpaceOnUse" gradientTransform="translate(30.9259 30.5867) scale(12.3615 12.3618)"><stop stop-color="#E4F591"></stop><stop offset="0.2" stop-color="#A0AB22"></stop><stop offset="0.39" stop-color="#818A2B"></stop><stop offset="0.56" stop-color="#648D38"></stop><stop offset="0.74" stop-color="#858354"></stop><stop offset="0.88" stop-color="#6A6222"></stop><stop offset="1" stop-color="#303402"></stop></radialGradient><radialGradient id="paint15_radial_668_24" cx="0" cy="0" r="1" gradientUnits="userSpaceOnUse" gradientTransform="translate(30.9232 30.5862) scale(12.3623 12.363)"><stop stop-color="#E4F591"></stop><stop offset="0.2" stop-color="#A0AB22"></stop><stop offset="0.39" stop-color="#818A2B"></stop><stop offset="0.56" stop-color="#648D38"></stop><stop offset="0.74" stop-color="#858354"></stop><stop offset="0.88" stop-color="#6A6222"></stop><stop offset="1" stop-color="#303402"></stop></radialGradient><radialGradient id="paint16_radial_668_24" cx="0" cy="0" r="1" gradientUnits="userSpaceOnUse" gradientTransform="translate(30.9177 30.5894) scale(12.3607 12.3579)"><stop stop-color="#E4F591"></stop><stop offset="0.2" stop-color="#A0AB22"></stop><stop offset="0.39" stop-color="#818A2B"></stop><stop offset="0.56" stop-color="#648D38"></stop><stop offset="0.74" stop-color="#858354"></stop><stop offset="0.88" stop-color="#6A6222"></stop><stop offset="1" stop-color="#303402"></stop></radialGradient><radialGradient id="paint17_radial_668_24" cx="0" cy="0" r="1" gradientUnits="userSpaceOnUse" gradientTransform="translate(30.9151 30.5869) scale(12.3642 12.3634)"><stop stop-color="#E4F591"></stop><stop offset="0.2" stop-color="#A0AB22"></stop><stop offset="0.39" stop-color="#818A2B"></stop><stop offset="0.56" stop-color="#648D38"></stop><stop offset="0.74" stop-color="#858354"></stop><stop offset="0.88" stop-color="#6A6222"></stop><stop offset="1" stop-color="#303402"></stop></radialGradient><radialGradient id="paint18_radial_668_24" cx="0" cy="0" r="1" gradientUnits="userSpaceOnUse" gradientTransform="translate(30.9227 30.5861) scale(12.3543 12.3581)"><stop stop-color="#E4F591"></stop><stop offset="0.2" stop-color="#A0AB22"></stop><stop offset="0.39" stop-color="#818A2B"></stop><stop offset="0.56" stop-color="#648D38"></stop><stop offset="0.74" stop-color="#858354"></stop><stop offset="0.88" stop-color="#6A6222"></stop><stop offset="1" stop-color="#303402"></stop></radialGradient><radialGradient id="paint19_radial_668_24" cx="0" cy="0" r="1" gradientUnits="userSpaceOnUse" gradientTransform="translate(30.9147 30.5861) scale(12.366 12.3654)"><stop stop-color="#E4F591"></stop><stop offset="0.2" stop-color="#A0AB22"></stop><stop offset="0.39" stop-color="#818A2B"></stop><stop offset="0.56" stop-color="#648D38"></stop><stop offset="0.74" stop-color="#858354"></stop><stop offset="0.88" stop-color="#6A6222"></stop><stop offset="1" stop-color="#303402"></stop></radialGradient><radialGradient id="paint20_radial_668_24" cx="0" cy="0" r="1" gradientUnits="userSpaceOnUse" gradientTransform="translate(30.9215 30.5864) scale(12.3562 12.3567)"><stop stop-color="#E4F591"></stop><stop offset="0.2" stop-color="#A0AB22"></stop><stop offset="0.39" stop-color="#818A2B"></stop><stop offset="0.56" stop-color="#648D38"></stop><stop offset="0.74" stop-color="#858354"></stop><stop offset="0.88" stop-color="#6A6222"></stop><stop offset="1" stop-color="#303402"></stop></radialGradient><radialGradient id="paint21_radial_668_24" cx="0" cy="0" r="1" gradientUnits="userSpaceOnUse" gradientTransform="translate(30.9238 30.5861) scale(12.3667 12.3546)"><stop stop-color="#E4F591"></stop><stop offset="0.2" stop-color="#A0AB22"></stop><stop offset="0.39" stop-color="#818A2B"></stop><stop offset="0.56" stop-color="#648D38"></stop><stop offset="0.74" stop-color="#858354"></stop><stop offset="0.88" stop-color="#6A6222"></stop><stop offset="1" stop-color="#303402"></stop></radialGradient><radialGradient id="paint22_radial_668_24" cx="0" cy="0" r="1" gradientUnits="userSpaceOnUse" gradientTransform="translate(30.9214 30.5862) scale(12.3653 12.3653)"><stop stop-color="#E4F591"></stop><stop offset="0.2" stop-color="#A0AB22"></stop><stop offset="0.39" stop-color="#818A2B"></stop><stop offset="0.56" stop-color="#648D38"></stop><stop offset="0.74" stop-color="#858354"></stop><stop offset="0.88" stop-color="#6A6222"></stop><stop offset="1" stop-color="#303402"></stop></radialGradient><radialGradient id="paint23_radial_668_24" cx="0" cy="0" r="1" gradientUnits="userSpaceOnUse" gradientTransform="translate(30.9239 30.5863) scale(12.3655 12.3653)"><stop stop-color="#E4F591"></stop><stop offset="0.2" stop-color="#A0AB22"></stop><stop offset="0.39" stop-color="#818A2B"></stop><stop offset="0.56" stop-color="#648D38"></stop><stop offset="0.74" stop-color="#858354"></stop><stop offset="0.88" stop-color="#6A6222"></stop><stop offset="1" stop-color="#303402"></stop></radialGradient><radialGradient id="paint24_radial_668_24" cx="0" cy="0" r="1" gradientUnits="userSpaceOnUse" gradientTransform="translate(30.9239 30.5864) scale(12.3657 12.3658)"><stop stop-color="#E4F591"></stop><stop offset="0.2" stop-color="#A0AB22"></stop><stop offset="0.39" stop-color="#818A2B"></stop><stop offset="0.56" stop-color="#648D38"></stop><stop offset="0.74" stop-color="#858354"></stop><stop offset="0.88" stop-color="#6A6222"></stop><stop offset="1" stop-color="#303402"></stop></radialGradient><radialGradient id="paint25_radial_668_24" cx="0" cy="0" r="1" gradientUnits="userSpaceOnUse" gradientTransform="translate(30.9225 30.5863) scale(12.3672 12.3687)"><stop stop-color="#E4F591"></stop><stop offset="0.2" stop-color="#A0AB22"></stop><stop offset="0.39" stop-color="#818A2B"></stop><stop offset="0.56" stop-color="#648D38"></stop><stop offset="0.74" stop-color="#858354"></stop><stop offset="0.88" stop-color="#6A6222"></stop><stop offset="1" stop-color="#303402"></stop></radialGradient><radialGradient id="paint26_radial_668_24" cx="0" cy="0" r="1" gradientUnits="userSpaceOnUse" gradientTransform="translate(30.9201 30.5864) scale(12.3691 12.3673)"><stop stop-color="#E4F591"></stop><stop offset="0.2" stop-color="#A0AB22"></stop><stop offset="0.39" stop-color="#818A2B"></stop><stop offset="0.56" stop-color="#648D38"></stop><stop offset="0.74" stop-color="#858354"></stop><stop offset="0.88" stop-color="#6A6222"></stop><stop offset="1" stop-color="#303402"></stop></radialGradient><radialGradient id="paint27_radial_668_24" cx="0" cy="0" r="1" gradientUnits="userSpaceOnUse" gradientTransform="translate(30.9195 30.5864) scale(12.37 12.3685)"><stop stop-color="#E4F591"></stop><stop offset="0.2" stop-color="#A0AB22"></stop><stop offset="0.39" stop-color="#818A2B"></stop><stop offset="0.56" stop-color="#648D38"></stop><stop offset="0.74" stop-color="#858354"></stop><stop offset="0.88" stop-color="#6A6222"></stop><stop offset="1" stop-color="#303402"></stop></radialGradient><radialGradient id="paint28_radial_668_24" cx="0" cy="0" r="1" gradientUnits="userSpaceOnUse" gradientTransform="translate(30.9169 30.5863) scale(12.37 12.3711)"><stop stop-color="#E4F591"></stop><stop offset="0.2" stop-color="#A0AB22"></stop><stop offset="0.39" stop-color="#818A2B"></stop><stop offset="0.56" stop-color="#648D38"></stop><stop offset="0.74" stop-color="#858354"></stop><stop offset="0.88" stop-color="#6A6222"></stop><stop offset="1" stop-color="#303402"></stop></radialGradient><radialGradient id="paint29_radial_668_24" cx="0" cy="0" r="1" gradientUnits="userSpaceOnUse" gradientTransform="translate(30.9167 30.5861) scale(12.3635 12.366)"><stop stop-color="#E4F591"></stop><stop offset="0.2" stop-color="#A0AB22"></stop><stop offset="0.39" stop-color="#818A2B"></stop><stop offset="0.56" stop-color="#648D38"></stop><stop offset="0.74" stop-color="#858354"></stop><stop offset="0.88" stop-color="#6A6222"></stop><stop offset="1" stop-color="#303402"></stop></radialGradient><radialGradient id="paint30_radial_668_24" cx="0" cy="0" r="1" gradientUnits="userSpaceOnUse" gradientTransform="translate(30.9299 30.5861) scale(12.3576 12.36)"><stop stop-color="#E4F591"></stop><stop offset="0.2" stop-color="#A0AB22"></stop><stop offset="0.39" stop-color="#818A2B"></stop><stop offset="0.56" stop-color="#648D38"></stop><stop offset="0.74" stop-color="#858354"></stop><stop offset="0.88" stop-color="#6A6222"></stop><stop offset="1" stop-color="#303402"></stop></radialGradient><radialGradient id="paint31_radial_668_24" cx="0" cy="0" r="1" gradientUnits="userSpaceOnUse" gradientTransform="translate(30.9138 30.5862) scale(12.3625 12.3651)"><stop stop-color="#E4F591"></stop><stop offset="0.2" stop-color="#A0AB22"></stop><stop offset="0.39" stop-color="#818A2B"></stop><stop offset="0.56" stop-color="#648D38"></stop><stop offset="0.74" stop-color="#858354"></stop><stop offset="0.88" stop-color="#6A6222"></stop><stop offset="1" stop-color="#303402"></stop></radialGradient><radialGradient id="paint32_radial_668_24" cx="0" cy="0" r="1" gradientUnits="userSpaceOnUse" gradientTransform="translate(30.9153 30.5863) scale(12.366 12.3655)"><stop stop-color="#E4F591"></stop><stop offset="0.2" stop-color="#A0AB22"></stop><stop offset="0.39" stop-color="#818A2B"></stop><stop offset="0.56" stop-color="#648D38"></stop><stop offset="0.74" stop-color="#858354"></stop><stop offset="0.88" stop-color="#6A6222"></stop><stop offset="1" stop-color="#303402"></stop></radialGradient><radialGradient id="paint33_radial_668_24" cx="0" cy="0" r="1" gradientUnits="userSpaceOnUse" gradientTransform="translate(30.9162 30.5861) scale(12.3628 12.3572)"><stop stop-color="#E4F591"></stop><stop offset="0.2" stop-color="#A0AB22"></stop><stop offset="0.39" stop-color="#818A2B"></stop><stop offset="0.56" stop-color="#648D38"></stop><stop offset="0.74" stop-color="#858354"></stop><stop offset="0.88" stop-color="#6A6222"></stop><stop offset="1" stop-color="#303402"></stop></radialGradient><radialGradient id="paint34_radial_668_24" cx="0" cy="0" r="1" gradientUnits="userSpaceOnUse" gradientTransform="translate(30.9191 30.5861) scale(12.3632 12.3624)"><stop stop-color="#E4F591"></stop><stop offset="0.2" stop-color="#A0AB22"></stop><stop offset="0.39" stop-color="#818A2B"></stop><stop offset="0.56" stop-color="#648D38"></stop><stop offset="0.74" stop-color="#858354"></stop><stop offset="0.88" stop-color="#6A6222"></stop><stop offset="1" stop-color="#303402"></stop></radialGradient><radialGradient id="paint35_radial_668_24" cx="0" cy="0" r="1" gradientUnits="userSpaceOnUse" gradientTransform="translate(30.9243 30.5865) scale(12.3582 12.3601)"><stop stop-color="#E4F591"></stop><stop offset="0.2" stop-color="#A0AB22"></stop><stop offset="0.39" stop-color="#818A2B"></stop><stop offset="0.56" stop-color="#648D38"></stop><stop offset="0.74" stop-color="#858354"></stop><stop offset="0.88" stop-color="#6A6222"></stop><stop offset="1" stop-color="#303402"></stop></radialGradient><radialGradient id="paint36_radial_668_24" cx="0" cy="0" r="1" gradientUnits="userSpaceOnUse" gradientTransform="translate(30.9232 30.5866) scale(12.3685 12.3686)"><stop stop-color="#E4F591"></stop><stop offset="0.2" stop-color="#A0AB22"></stop><stop offset="0.39" stop-color="#818A2B"></stop><stop offset="0.56" stop-color="#648D38"></stop><stop offset="0.74" stop-color="#858354"></stop><stop offset="0.88" stop-color="#6A6222"></stop><stop offset="1" stop-color="#303402"></stop></radialGradient><radialGradient id="paint37_radial_668_24" cx="0" cy="0" r="1" gradientUnits="userSpaceOnUse" gradientTransform="translate(30.9193 30.5864) scale(12.3661 12.365)"><stop stop-color="#E4F591"></stop><stop offset="0.2" stop-color="#A0AB22"></stop><stop offset="0.39" stop-color="#818A2B"></stop><stop offset="0.56" stop-color="#648D38"></stop><stop offset="0.74" stop-color="#858354"></stop><stop offset="0.88" stop-color="#6A6222"></stop><stop offset="1" stop-color="#303402"></stop></radialGradient><radialGradient id="paint38_radial_668_24" cx="0" cy="0" r="1" gradientUnits="userSpaceOnUse" gradientTransform="translate(30.9236 30.586) scale(12.3631 12.3628)"><stop stop-color="#E4F591"></stop><stop offset="0.2" stop-color="#A0AB22"></stop><stop offset="0.39" stop-color="#818A2B"></stop><stop offset="0.56" stop-color="#648D38"></stop><stop offset="0.74" stop-color="#858354"></stop><stop offset="0.88" stop-color="#6A6222"></stop><stop offset="1" stop-color="#303402"></stop></radialGradient><radialGradient id="paint39_radial_668_24" cx="0" cy="0" r="1" gradientUnits="userSpaceOnUse" gradientTransform="translate(30.9254 30.5862) scale(12.3577 12.3603)"><stop stop-color="#E4F591"></stop><stop offset="0.2" stop-color="#A0AB22"></stop><stop offset="0.39" stop-color="#818A2B"></stop><stop offset="0.56" stop-color="#648D38"></stop><stop offset="0.74" stop-color="#858354"></stop><stop offset="0.88" stop-color="#6A6222"></stop><stop offset="1" stop-color="#303402"></stop></radialGradient><radialGradient id="paint40_radial_668_24" cx="0" cy="0" r="1" gradientUnits="userSpaceOnUse" gradientTransform="translate(30.9155 30.5862) scale(12.365 12.362)"><stop stop-color="#E4F591"></stop><stop offset="0.2" stop-color="#A0AB22"></stop><stop offset="0.39" stop-color="#818A2B"></stop><stop offset="0.56" stop-color="#648D38"></stop><stop offset="0.74" stop-color="#858354"></stop><stop offset="0.88" stop-color="#6A6222"></stop><stop offset="1" stop-color="#303402"></stop></radialGradient><radialGradient id="paint41_radial_668_24" cx="0" cy="0" r="1" gradientUnits="userSpaceOnUse" gradientTransform="translate(30.9156 30.5889) scale(12.3688 12.3636)"><stop stop-color="#E4F591"></stop><stop offset="0.2" stop-color="#A0AB22"></stop><stop offset="0.39" stop-color="#818A2B"></stop><stop offset="0.56" stop-color="#648D38"></stop><stop offset="0.74" stop-color="#858354"></stop><stop offset="0.88" stop-color="#6A6222"></stop><stop offset="1" stop-color="#303402"></stop></radialGradient><radialGradient id="paint42_radial_668_24" cx="0" cy="0" r="1" gradientUnits="userSpaceOnUse" gradientTransform="translate(30.9214 30.586) scale(12.3634 12.3681)"><stop stop-color="#E4F591"></stop><stop offset="0.2" stop-color="#A0AB22"></stop><stop offset="0.39" stop-color="#818A2B"></stop><stop offset="0.56" stop-color="#648D38"></stop><stop offset="0.74" stop-color="#858354"></stop><stop offset="0.88" stop-color="#6A6222"></stop><stop offset="1" stop-color="#303402"></stop></radialGradient><radialGradient id="paint43_radial_668_24" cx="0" cy="0" r="1" gradientUnits="userSpaceOnUse" gradientTransform="translate(30.9227 30.586) scale(12.3637 12.3665)"><stop stop-color="#E4F591"></stop><stop offset="0.2" stop-color="#A0AB22"></stop><stop offset="0.39" stop-color="#818A2B"></stop><stop offset="0.56" stop-color="#648D38"></stop><stop offset="0.74" stop-color="#858354"></stop><stop offset="0.88" stop-color="#6A6222"></stop><stop offset="1" stop-color="#303402"></stop></radialGradient><radialGradient id="paint44_radial_668_24" cx="0" cy="0" r="1" gradientUnits="userSpaceOnUse" gradientTransform="translate(30.9149 30.5863) scale(12.3705 12.3691)"><stop stop-color="#E4F591"></stop><stop offset="0.2" stop-color="#A0AB22"></stop><stop offset="0.39" stop-color="#818A2B"></stop><stop offset="0.56" stop-color="#648D38"></stop><stop offset="0.74" stop-color="#858354"></stop><stop offset="0.88" stop-color="#6A6222"></stop><stop offset="1" stop-color="#303402"></stop></radialGradient><radialGradient id="paint45_radial_668_24" cx="0" cy="0" r="1" gradientUnits="userSpaceOnUse" gradientTransform="translate(30.9174 30.5862) scale(12.371 12.3714)"><stop stop-color="#E4F591"></stop><stop offset="0.2" stop-color="#A0AB22"></stop><stop offset="0.39" stop-color="#818A2B"></stop><stop offset="0.56" stop-color="#648D38"></stop><stop offset="0.74" stop-color="#858354"></stop><stop offset="0.88" stop-color="#6A6222"></stop><stop offset="1" stop-color="#303402"></stop></radialGradient><radialGradient id="paint46_radial_668_24" cx="0" cy="0" r="1" gradientUnits="userSpaceOnUse" gradientTransform="translate(30.9227 30.5861) scale(12.3659 12.3651)"><stop stop-color="#E4F591"></stop><stop offset="0.2" stop-color="#A0AB22"></stop><stop offset="0.39" stop-color="#818A2B"></stop><stop offset="0.56" stop-color="#648D38"></stop><stop offset="0.74" stop-color="#858354"></stop><stop offset="0.88" stop-color="#6A6222"></stop><stop offset="1" stop-color="#303402"></stop></radialGradient><radialGradient id="paint47_radial_668_24" cx="0" cy="0" r="1" gradientUnits="userSpaceOnUse" gradientTransform="translate(30.9206 30.5889) scale(12.3546 12.3586)"><stop stop-color="#E4F591"></stop><stop offset="0.2" stop-color="#A0AB22"></stop><stop offset="0.39" stop-color="#818A2B"></stop><stop offset="0.56" stop-color="#648D38"></stop><stop offset="0.74" stop-color="#858354"></stop><stop offset="0.88" stop-color="#6A6222"></stop><stop offset="1" stop-color="#303402"></stop></radialGradient><radialGradient id="paint48_radial_668_24" cx="0" cy="0" r="1" gradientUnits="userSpaceOnUse" gradientTransform="translate(30.9242 30.5864) scale(12.3639 12.3621)"><stop stop-color="#E4F591"></stop><stop offset="0.2" stop-color="#A0AB22"></stop><stop offset="0.39" stop-color="#818A2B"></stop><stop offset="0.56" stop-color="#648D38"></stop><stop offset="0.74" stop-color="#858354"></stop><stop offset="0.88" stop-color="#6A6222"></stop><stop offset="1" stop-color="#303402"></stop></radialGradient><radialGradient id="paint49_radial_668_24" cx="0" cy="0" r="1" gradientUnits="userSpaceOnUse" gradientTransform="translate(30.9125 30.5874) scale(12.3751 12.3675)"><stop stop-color="#E4F591"></stop><stop offset="0.2" stop-color="#A0AB22"></stop><stop offset="0.39" stop-color="#818A2B"></stop><stop offset="0.56" stop-color="#648D38"></stop><stop offset="0.74" stop-color="#858354"></stop><stop offset="0.88" stop-color="#6A6222"></stop><stop offset="1" stop-color="#303402"></stop></radialGradient><radialGradient id="paint50_radial_668_24" cx="0" cy="0" r="1" gradientUnits="userSpaceOnUse" gradientTransform="translate(30.9154 30.5896) scale(12.3715 12.3669)"><stop stop-color="#E4F591"></stop><stop offset="0.2" stop-color="#A0AB22"></stop><stop offset="0.39" stop-color="#818A2B"></stop><stop offset="0.56" stop-color="#648D38"></stop><stop offset="0.74" stop-color="#858354"></stop><stop offset="0.88" stop-color="#6A6222"></stop><stop offset="1" stop-color="#303402"></stop></radialGradient><radialGradient id="paint51_radial_668_24" cx="0" cy="0" r="1" gradientUnits="userSpaceOnUse" gradientTransform="translate(30.9269 30.5866) scale(12.3491 12.3367)"><stop stop-color="#E4F591"></stop><stop offset="0.2" stop-color="#A0AB22"></stop><stop offset="0.39" stop-color="#818A2B"></stop><stop offset="0.56" stop-color="#648D38"></stop><stop offset="0.74" stop-color="#858354"></stop><stop offset="0.88" stop-color="#6A6222"></stop><stop offset="1" stop-color="#303402"></stop></radialGradient><radialGradient id="paint52_radial_668_24" cx="0" cy="0" r="1" gradientUnits="userSpaceOnUse" gradientTransform="translate(30.9149 30.5832) scale(12.3733 12.3655)"><stop stop-color="#E4F591"></stop><stop offset="0.2" stop-color="#A0AB22"></stop><stop offset="0.39" stop-color="#818A2B"></stop><stop offset="0.56" stop-color="#648D38"></stop><stop offset="0.74" stop-color="#858354"></stop><stop offset="0.88" stop-color="#6A6222"></stop><stop offset="1" stop-color="#303402"></stop></radialGradient><radialGradient id="paint53_radial_668_24" cx="0" cy="0" r="1" gradientUnits="userSpaceOnUse" gradientTransform="translate(30.9369 30.5866) scale(12.3324 12.3564)"><stop stop-color="#E4F591"></stop><stop offset="0.2" stop-color="#A0AB22"></stop><stop offset="0.39" stop-color="#818A2B"></stop><stop offset="0.56" stop-color="#648D38"></stop><stop offset="0.74" stop-color="#858354"></stop><stop offset="0.88" stop-color="#6A6222"></stop><stop offset="1" stop-color="#303402"></stop></radialGradient><radialGradient id="paint54_radial_668_24" cx="0" cy="0" r="1" gradientUnits="userSpaceOnUse" gradientTransform="translate(30.9322 30.5891) scale(12.3537 12.356)"><stop stop-color="#E4F591"></stop><stop offset="0.2" stop-color="#A0AB22"></stop><stop offset="0.39" stop-color="#818A2B"></stop><stop offset="0.56" stop-color="#648D38"></stop><stop offset="0.74" stop-color="#858354"></stop><stop offset="0.88" stop-color="#6A6222"></stop><stop offset="1" stop-color="#303402"></stop></radialGradient><radialGradient id="paint55_radial_668_24" cx="0" cy="0" r="1" gradientUnits="userSpaceOnUse" gradientTransform="translate(30.9274 30.5889) scale(12.3619 12.3648)"><stop stop-color="#E4F591"></stop><stop offset="0.2" stop-color="#A0AB22"></stop><stop offset="0.39" stop-color="#818A2B"></stop><stop offset="0.56" stop-color="#648D38"></stop><stop offset="0.74" stop-color="#858354"></stop><stop offset="0.88" stop-color="#6A6222"></stop><stop offset="1" stop-color="#303402"></stop></radialGradient><radialGradient id="paint56_radial_668_24" cx="0" cy="0" r="1" gradientUnits="userSpaceOnUse" gradientTransform="translate(30.9318 30.5893) scale(12.3505 12.3475)"><stop stop-color="#E4F591"></stop><stop offset="0.2" stop-color="#A0AB22"></stop><stop offset="0.39" stop-color="#818A2B"></stop><stop offset="0.56" stop-color="#648D38"></stop><stop offset="0.74" stop-color="#858354"></stop><stop offset="0.88" stop-color="#6A6222"></stop><stop offset="1" stop-color="#303402"></stop></radialGradient><radialGradient id="paint57_radial_668_24" cx="0" cy="0" r="1" gradientUnits="userSpaceOnUse" gradientTransform="translate(30.9246 30.5864) scale(12.357 12.3587)"><stop stop-color="#E4F591"></stop><stop offset="0.2" stop-color="#A0AB22"></stop><stop offset="0.39" stop-color="#818A2B"></stop><stop offset="0.56" stop-color="#648D38"></stop><stop offset="0.74" stop-color="#858354"></stop><stop offset="0.88" stop-color="#6A6222"></stop><stop offset="1" stop-color="#303402"></stop></radialGradient><clipPath id="clip0_668_24"><rect width="70.014" height="36.9813" fill="white" transform="translate(0 0.21228)"></rect></clipPath></defs></svg>