<svg xmlns="http://www.w3.org/2000/svg" width="55" height="55" viewBox="0 0 55 55" fill="none"><circle cx="27.5" cy="27.5" r="27.5" fill="#5DC2D3"></circle><path d="M35.9688 31.0938L35.2188 34.25C35.125 34.7188 34.75 35.0312 34.2812 35.0312C26.4062 35 20 28.5938 20 20.7188C20 20.25 20.2812 19.875 20.75 19.7812L23.9062 19.0312C24.3438 18.9375 24.8125 19.1875 25 19.5938L26.4688 23C26.625 23.4062 26.5312 23.875 26.1875 24.125L24.5 25.5C25.5625 27.6562 27.3125 29.4062 29.5 30.4688L30.875 28.7812C31.125 28.4688 31.5938 28.3438 32 28.5L35.4062 29.9688C35.8125 30.1875 36.0625 30.6562 35.9688 31.0938Z" fill="white"></path></svg>