<svg xmlns="http://www.w3.org/2000/svg" width="47" height="47" viewBox="0 0 47 47" fill="none"><path d="M34.5591 35.4556C32.4358 35.4556 30.363 34.6236 28.8322 33.1481C27.6027 31.9633 26.4365 30.6995 25.3084 29.4772C25.0493 29.1962 24.79 28.9156 24.5299 28.6356C23.6766 27.7164 22.5715 27.2444 21.1521 27.1918C19.6117 27.1348 18.2383 27.8149 17.3572 28.3958L12.0432 31.931C10.7945 32.762 9.25555 32.987 7.82134 32.5483C6.39229 32.111 5.24561 31.0702 4.6733 29.6906L1.65202 22.8105C0.288233 19.657 1.05944 17.0026 4.00721 14.69C4.00721 14.69 13.0889 5.82743 13.0954 5.8209C13.8131 5.15 14.599 4.49216 15.6241 4.46124C16.6574 4.43067 17.4719 5.04454 18.2181 5.67628C18.33 5.77143 18.4424 5.78208 18.5166 5.77453C18.587 5.76731 18.6883 5.7364 18.7722 5.62956C19.5667 4.61479 20.069 3.85252 20.4723 3.23967C21.162 2.19193 21.6605 1.4348 22.7106 1.12941C23.5705 0.879671 24.5289 1.02086 26.4382 1.30255C26.8803 1.36782 27.3795 1.44167 27.9459 1.52068C28.3626 1.57908 28.7264 1.8326 28.925 2.20326C29.1239 2.57393 29.1338 3.01707 28.9521 3.39632C28.5303 4.27574 28.2283 4.95797 27.8748 5.62647C27.6996 5.95831 27.756 6.05793 27.8133 6.11461L31.5677 9.17231C31.8951 9.34613 32.2424 9.28705 32.4481 9.17781C32.713 9.03696 32.7429 8.83463 32.7484 8.74325L32.7274 3.96554C32.725 3.3891 33.0974 2.87794 33.6467 2.70343C34.196 2.52892 34.7947 2.7316 35.1256 3.20395C35.1256 3.20395 44.3495 16.3853 44.3612 16.4041C46.4264 19.7009 46.3873 21.4416 45.2416 24.6916C44.2231 27.581 42.4838 30.4054 40.0723 33.0866C38.7676 34.5373 36.9122 35.3769 34.8483 35.4504C34.7518 35.4539 34.6553 35.4556 34.5591 35.4556ZM20.9728 24.5522C21.0655 24.5522 21.1576 24.5539 21.2496 24.5573C23.3736 24.636 25.1273 25.4044 26.4619 26.8417C26.7237 27.1238 26.9848 27.4065 27.2458 27.6892C28.3482 28.8836 29.4877 30.1186 30.6618 31.2502C31.7498 32.2989 33.2393 32.8699 34.7542 32.8159C36.097 32.7679 37.2897 32.2378 38.1121 31.3237C40.2904 28.9015 41.8524 26.3756 42.7552 23.8153C43.7229 21.0699 43.6394 20.2231 42.1448 17.8322L35.3818 8.16819C35.3818 8.16819 35.3839 8.80027 35.3835 8.81848C35.3409 9.95829 34.7061 10.9627 33.6848 11.5055C32.5667 12.0998 31.1998 12.051 30.1177 11.3774C30.0703 11.3478 30.0249 11.3155 29.9816 11.2805C29.9816 11.2805 26.0823 8.10395 26.0658 8.08918C25.0322 7.15652 24.8322 5.74052 25.5444 4.39391C25.6326 4.22696 25.7192 4.05451 25.8075 3.8745C24.6406 3.70274 23.7343 3.57701 23.4461 3.66083C23.3283 3.69518 22.9807 4.22352 22.6739 4.68934C22.2665 5.30802 21.7089 6.15515 20.847 7.25511C20.3355 7.9078 19.6031 8.3135 18.7842 8.39698C17.9601 8.48114 17.1535 8.22934 16.5142 7.68795C16.0102 7.26095 15.7883 7.13969 15.7021 7.10533C15.6169 7.14381 15.3981 7.27744 14.9062 7.73673L5.79593 16.6278C5.76021 16.6625 5.72242 16.6955 5.68291 16.726C3.63998 18.3093 3.18756 19.7198 4.0687 21.7573C4.0687 21.7573 7.10097 28.6628 7.1051 28.6724C7.37373 29.3264 7.91581 29.8204 8.59221 30.0272C9.26895 30.2344 9.99447 30.1282 10.5829 29.7363L15.9017 26.1976C17.541 25.1173 19.2868 24.5522 20.9728 24.5522Z" fill="#5DC2D3"></path><path d="M35.3837 46C32.6239 46 30.8286 42.2206 30.2958 39.6806C30.2141 39.2917 30.312 38.887 30.5624 38.5789C30.8125 38.2707 31.1886 38.0914 31.5857 38.0914H39.1821C39.5792 38.0914 39.955 38.2707 40.2054 38.5789C40.4558 38.887 40.5537 39.2917 40.472 39.6806C39.9388 42.2209 38.1436 46 35.3837 46ZM33.3597 40.7276C33.571 41.2584 33.8231 41.7603 34.0972 42.1862C34.6204 42.9997 35.1202 43.3638 35.3837 43.3638C35.6472 43.3638 36.1474 42.9997 36.6706 42.1862C36.9447 41.7606 37.1968 41.2584 37.4081 40.7276H33.3597Z" fill="#5DC2D3"></path><path d="M34.5591 35.4556C32.4358 35.4556 30.363 34.6236 28.8322 33.1481C27.6027 31.9633 26.4365 30.6995 25.3084 29.4772C25.0493 29.1962 24.79 28.9156 24.5299 28.6356C23.6766 27.7164 22.5715 27.2444 21.1521 27.1918C19.6117 27.1348 18.2383 27.8149 17.3572 28.3958L12.0432 31.931C10.7945 32.762 9.25555 32.987 7.82134 32.5483C6.39229 32.111 5.24561 31.0702 4.6733 29.6906L1.65202 22.8105C0.288233 19.657 1.05944 17.0026 4.00721 14.69C4.00721 14.69 13.0889 5.82743 13.0954 5.8209C13.8131 5.15 14.599 4.49216 15.6241 4.46124C16.6574 4.43067 17.4719 5.04454 18.2181 5.67628C18.33 5.77143 18.4424 5.78208 18.5166 5.77453C18.587 5.76731 18.6883 5.7364 18.7722 5.62956C19.5667 4.61479 20.069 3.85252 20.4723 3.23967C21.162 2.19193 21.6605 1.4348 22.7106 1.12941C23.5705 0.879671 24.5289 1.02086 26.4382 1.30255C26.8803 1.36782 27.3795 1.44167 27.9459 1.52068C28.3626 1.57908 28.7264 1.8326 28.925 2.20326C29.1239 2.57393 29.1338 3.01707 28.9521 3.39632C28.5303 4.27574 28.2283 4.95797 27.8748 5.62647C27.6996 5.95831 27.756 6.05793 27.8133 6.11461L31.5677 9.17231C31.8951 9.34613 32.2424 9.28705 32.4481 9.17781C32.713 9.03696 32.7429 8.83463 32.7484 8.74325L32.7274 3.96554C32.725 3.3891 33.0974 2.87794 33.6467 2.70343C34.196 2.52892 34.7947 2.7316 35.1256 3.20395C35.1256 3.20395 44.3495 16.3853 44.3612 16.4041C46.4264 19.7009 46.3873 21.4416 45.2416 24.6916C44.2231 27.581 42.4838 30.4054 40.0723 33.0866C38.7676 34.5373 36.9122 35.3769 34.8483 35.4504C34.7518 35.4539 34.6553 35.4556 34.5591 35.4556ZM20.9728 24.5522C21.0655 24.5522 21.1576 24.5539 21.2496 24.5573C23.3736 24.636 25.1273 25.4044 26.4619 26.8417C26.7237 27.1238 26.9848 27.4065 27.2458 27.6892C28.3482 28.8836 29.4877 30.1186 30.6618 31.2502C31.7498 32.2989 33.2393 32.8699 34.7542 32.8159C36.097 32.7679 37.2897 32.2378 38.1121 31.3237C40.2904 28.9015 41.8524 26.3756 42.7552 23.8153C43.7229 21.0699 43.6394 20.2231 42.1448 17.8322L35.3818 8.16819C35.3818 8.16819 35.3839 8.80027 35.3835 8.81848C35.3409 9.95829 34.7061 10.9627 33.6848 11.5055C32.5667 12.0998 31.1998 12.051 30.1177 11.3774C30.0703 11.3478 30.0249 11.3155 29.9816 11.2805C29.9816 11.2805 26.0823 8.10395 26.0658 8.08918C25.0322 7.15652 24.8322 5.74052 25.5444 4.39391C25.6326 4.22696 25.7192 4.05451 25.8075 3.8745C24.6406 3.70274 23.7343 3.57701 23.4461 3.66083C23.3283 3.69518 22.9807 4.22352 22.6739 4.68934C22.2665 5.30802 21.7089 6.15515 20.847 7.25511C20.3355 7.9078 19.6031 8.3135 18.7842 8.39698C17.9601 8.48114 17.1535 8.22934 16.5142 7.68795C16.0102 7.26095 15.7883 7.13969 15.7021 7.10533C15.6169 7.14381 15.3981 7.27744 14.9062 7.73673L5.79593 16.6278C5.76021 16.6625 5.72242 16.6955 5.68291 16.726C3.63998 18.3093 3.18756 19.7198 4.0687 21.7573C4.0687 21.7573 7.10097 28.6628 7.1051 28.6724C7.37373 29.3264 7.91581 29.8204 8.59221 30.0272C9.26895 30.2344 9.99447 30.1282 10.5829 29.7363L15.9017 26.1976C17.541 25.1173 19.2868 24.5522 20.9728 24.5522Z" stroke="#5DC2D3"></path><path d="M35.3837 46C32.6239 46 30.8286 42.2206 30.2958 39.6806C30.2141 39.2917 30.312 38.887 30.5624 38.5789C30.8125 38.2707 31.1886 38.0914 31.5857 38.0914H39.1821C39.5792 38.0914 39.955 38.2707 40.2054 38.5789C40.4558 38.887 40.5537 39.2917 40.472 39.6806C39.9388 42.2209 38.1436 46 35.3837 46ZM33.3597 40.7276C33.571 41.2584 33.8231 41.7603 34.0972 42.1862C34.6204 42.9997 35.1202 43.3638 35.3837 43.3638C35.6472 43.3638 36.1474 42.9997 36.6706 42.1862C36.9447 41.7606 37.1968 41.2584 37.4081 40.7276H33.3597Z" stroke="#5DC2D3"></path></svg>