<svg xmlns="http://www.w3.org/2000/svg" width="45" height="45" viewBox="0 0 45 45" fill="none"><path d="M40.4066 19.4361H28.1311C27.1819 19.435 26.2719 19.0574 25.6007 18.3862C24.9295 17.715 24.5519 16.805 24.5508 15.8558V3.58034C24.5519 2.63113 24.9295 1.72113 25.6007 1.04993C26.2719 0.378737 27.1819 0.00115322 28.1311 0H40.4066C41.3558 0.00115322 42.2658 0.378737 42.937 1.04993C43.6082 1.72113 43.9858 2.63113 43.9869 3.58034V15.8558C43.9858 16.805 43.6082 17.715 42.937 18.3862C42.2658 19.0574 41.3558 19.435 40.4066 19.4361ZM28.1311 3.06886C27.9955 3.06912 27.8656 3.12309 27.7697 3.21896C27.6739 3.31482 27.6199 3.44477 27.6196 3.58034V15.8558C27.6199 15.9914 27.6739 16.1213 27.7697 16.2172C27.8656 16.313 27.9955 16.367 28.1311 16.3673H40.4066C40.5421 16.367 40.6721 16.313 40.768 16.2172C40.8638 16.1213 40.9178 15.9914 40.918 15.8558V3.58034C40.9178 3.44477 40.8638 3.31482 40.768 3.21896C40.6721 3.12309 40.5421 3.06912 40.4066 3.06886H28.1311Z" fill="#5DC2D3"></path><path d="M34.2699 45C33.7997 45.001 33.334 44.909 32.8996 44.7293C32.4652 44.5496 32.0705 44.2858 31.7384 43.9531L24.5857 36.8004C23.9155 36.1284 23.5391 35.218 23.5391 34.2689C23.5391 33.3199 23.9155 32.4095 24.5857 31.7375L31.7384 24.5848C32.4102 23.9141 33.3206 23.5374 34.2699 23.5374C35.2191 23.5374 36.1295 23.9141 36.8013 24.5848L43.954 31.7375C44.6247 32.4093 45.0014 33.3197 45.0014 34.2689C45.0014 35.2182 44.6247 36.1286 43.954 36.8004L36.8013 43.9531C36.4692 44.2858 36.0745 44.5496 35.6401 44.7293C35.2057 44.909 34.74 45.001 34.2699 45ZM34.2699 26.6048C34.2027 26.6046 34.1361 26.6178 34.074 26.6435C34.0119 26.6692 33.9556 26.707 33.9082 26.7546L26.7555 33.9073C26.708 33.9548 26.6703 34.0112 26.6446 34.0732C26.6189 34.1353 26.6057 34.2018 26.6057 34.2689C26.6057 34.3361 26.6189 34.4026 26.6446 34.4647C26.6703 34.5267 26.708 34.5831 26.7555 34.6306L33.9082 41.7833C33.9557 41.8308 34.0121 41.8685 34.0741 41.8942C34.1362 41.9199 34.2027 41.9331 34.2699 41.9331C34.337 41.9331 34.4035 41.9199 34.4656 41.8942C34.5276 41.8685 34.584 41.8308 34.6315 41.7833L41.7842 34.6306C41.8317 34.5831 41.8694 34.5267 41.8951 34.4647C41.9208 34.4026 41.934 34.3361 41.934 34.2689C41.934 34.2018 41.9208 34.1353 41.8951 34.0732C41.8694 34.0112 41.8317 33.9548 41.7842 33.9073L34.6315 26.7546C34.5841 26.707 34.5278 26.6692 34.4657 26.6435C34.4036 26.6178 34.337 26.6046 34.2699 26.6048Z" fill="#5DC2D3"></path><path d="M15.8558 19.4361H3.58034C2.63113 19.435 1.72113 19.0574 1.04993 18.3862C0.378737 17.715 0.00115322 16.805 0 15.8558V3.58034C0.00115322 2.63113 0.378737 1.72113 1.04993 1.04993C1.72113 0.378737 2.63113 0.00115322 3.58034 0H15.8558C16.805 0.00115322 17.715 0.378737 18.3862 1.04993C19.0574 1.72113 19.435 2.63113 19.4361 3.58034V15.8558C19.435 16.805 19.0574 17.715 18.3862 18.3862C17.715 19.0574 16.805 19.435 15.8558 19.4361ZM3.58034 3.06886C3.44477 3.06912 3.31482 3.12309 3.21896 3.21896C3.12309 3.31482 3.06912 3.44477 3.06886 3.58034V15.8558C3.06912 15.9914 3.12309 16.1213 3.21896 16.2172C3.31482 16.313 3.44477 16.367 3.58034 16.3673H15.8558C15.9914 16.367 16.1213 16.313 16.2172 16.2172C16.313 16.1213 16.367 15.9914 16.3673 15.8558V3.58034C16.367 3.44477 16.313 3.31482 16.2172 3.21896C16.1213 3.12309 15.9914 3.06912 15.8558 3.06886H3.58034Z" fill="#5DC2D3"></path><path d="M15.8558 43.987H3.58034C2.63113 43.9859 1.72113 43.6083 1.04993 42.9371C0.378737 42.2659 0.00115322 41.3559 0 40.4067V28.1312C0.00115322 27.182 0.378737 26.272 1.04993 25.6008C1.72113 24.9296 2.63113 24.5521 3.58034 24.5509H15.8558C16.805 24.5521 17.715 24.9296 18.3862 25.6008C19.0574 26.272 19.435 27.182 19.4361 28.1312V40.4067C19.435 41.3559 19.0574 42.2659 18.3862 42.9371C17.715 43.6083 16.805 43.9859 15.8558 43.987ZM3.58034 27.6198C3.44477 27.62 3.31482 27.674 3.21896 27.7699C3.12309 27.8657 3.06912 27.9957 3.06886 28.1312V40.4067C3.06912 40.5423 3.12309 40.6722 3.21896 40.7681C3.31482 40.8639 3.44477 40.9179 3.58034 40.9182H15.8558C15.9914 40.9179 16.1213 40.8639 16.2172 40.7681C16.313 40.6722 16.367 40.5423 16.3673 40.4067V28.1312C16.367 27.9957 16.313 27.8657 16.2172 27.7699C16.1213 27.674 15.9914 27.62 15.8558 27.6198H3.58034Z" fill="#5DC2D3"></path></svg>