<svg xmlns="http://www.w3.org/2000/svg" width="30" height="30" viewBox="0 0 30 30" fill="none"><g clip-path="url(#clip0_1444_2283)"><path d="M24.6331 29.4886C18.2308 30.1716 11.774 30.1716 5.37169 29.4886C4.12843 29.3573 2.96773 28.8038 2.0831 27.9204C1.19847 27.037 0.643365 25.8771 0.510329 24.634C-0.172714 18.2317 -0.172714 11.775 0.510329 5.37267C0.64162 4.1294 1.1951 2.9687 2.07848 2.08407C2.96187 1.19945 4.1218 0.644341 5.36487 0.511306C11.7672 -0.171737 18.2239 -0.171737 24.6262 0.511306C25.8695 0.642596 27.0302 1.19607 27.9148 2.07946C28.7995 2.96285 29.3546 4.12277 29.4876 5.36585C30.1706 11.7681 30.1706 18.2249 29.4876 24.6272C29.3563 25.8705 28.8028 27.0312 27.9194 27.9158C27.0361 28.8004 25.8761 29.3555 24.6331 29.4886Z" fill="#010101"></path><path d="M12.7369 24.375C11.1501 24.375 9.62829 23.7447 8.50627 22.6226C7.38425 21.5006 6.75391 19.9788 6.75391 18.392C6.75391 16.8053 7.38425 15.2835 8.50627 14.1615C9.62829 13.0394 11.1501 12.4091 12.7369 12.4091H14.1977V15.329H12.7369C12.13 15.329 11.5368 15.5089 11.0323 15.8461C10.5277 16.1832 10.1345 16.6624 9.90223 17.223C9.67001 17.7837 9.60925 18.4006 9.72763 18.9957C9.84602 19.5909 10.1382 20.1376 10.5673 20.5667C10.9964 20.9958 11.5431 21.288 12.1383 21.4064C12.7335 21.5248 13.3504 21.464 13.911 21.2318C14.4716 20.9996 14.9508 20.6063 15.288 20.1018C15.6251 19.5972 15.805 19.004 15.805 18.3972V5.625H18.7249V7.08409C18.7249 7.89782 19.0482 8.67823 19.6236 9.25362C20.199 9.82902 20.9794 10.1523 21.7931 10.1523H23.2539V13.067H21.7829C20.7015 13.0686 19.6404 12.7738 18.7147 12.2148V18.392C18.7134 19.9775 18.0833 21.4978 16.9626 22.6193C15.842 23.7409 14.3223 24.3723 12.7369 24.375Z" fill="white"></path></g><defs><clipPath id="clip0_1444_2283"><rect width="30" height="30" fill="white"></rect></clipPath></defs></svg>